<?xml version="1.0" encoding="UTF-8"?>
<svg version="1.1" xmlns="http://www.w3.org/2000/svg" width="1681" height="1271">
<path d="M0 0 C554.73 0 1109.46 0 1681 0 C1681 419.43 1681 838.86 1681 1271 C1126.27 1271 571.54 1271 0 1271 C0 851.57 0 432.14 0 0 Z " fill="#FEFEFE" transform="translate(0,0)"/>
<path d="M0 0 C2.13288226 2.07194277 3.03941635 4.21905104 4 7 C4.5878125 8.2684375 4.5878125 8.2684375 5.1875 9.5625 C7.25985882 15.77957645 7.30099257 22.25724266 7.55342102 28.74687195 C7.6165717 30.33115731 7.6165717 30.33115731 7.68099815 31.94744843 C8.12372937 43.9810581 8.148192 56.00979254 8.14526367 68.05004883 C8.14826512 70.55787709 8.15166987 73.06570489 8.15544128 75.5735321 C8.16327468 81.60985744 8.1664909 87.64616747 8.16705366 93.68249647 C8.16753307 98.59077364 8.16960858 103.49904766 8.17275429 108.40732384 C8.18152285 122.37621485 8.18617842 136.34509827 8.18542381 150.31399206 C8.18538386 151.06220329 8.1853439 151.81041453 8.18530273 152.58129883 C8.18526185 153.33043876 8.18522097 154.07957869 8.18517885 154.85141983 C8.18477109 167.03187839 8.19438314 179.21230624 8.2084411 191.3927559 C8.22281978 203.95139882 8.2297108 216.51002673 8.22884732 229.06867808 C8.22851639 236.09925849 8.23121952 243.12980648 8.24202538 250.16037941 C8.25210458 256.75896505 8.25178018 263.35749395 8.24450874 269.95608711 C8.24346458 272.37193655 8.2458158 274.78779028 8.2518692 277.20363235 C8.25961429 280.50915141 8.25492795 283.81443517 8.24723816 287.11994934 C8.25238172 288.06761998 8.25752529 289.01529061 8.26282471 289.99167854 C8.21279102 299.7709321 7.61368042 308.4415081 1 316 C-2.90027228 319.48885116 -5.83548237 319.56357729 -10.92578125 319.4140625 C-18.98368594 318.32875386 -25.75560191 314.55820182 -31.9765625 309.4921875 C-35.66975399 306.76863702 -39.84890244 304.92243453 -44 303 C-44 302.34 -44 301.68 -44 301 C-45.65 300.67 -47.3 300.34 -49 300 C-49 299.34 -49 298.68 -49 298 C-50.08087891 297.85111328 -50.08087891 297.85111328 -51.18359375 297.69921875 C-54.3745275 296.90701744 -56.353826 295.66322296 -59.0625 293.8125 C-62.77130268 291.37275712 -66.43000056 289.21975186 -70.4375 287.3125 C-78.84223497 283.23614875 -86.71683811 278.24123655 -94.69287109 273.39501953 C-99.42515486 270.53361536 -104.21012371 267.76368875 -109 265 C-110.02287109 264.40445313 -110.02287109 264.40445313 -111.06640625 263.796875 C-113.65361954 262.29930877 -116.22873935 260.89293052 -118.9375 259.625 C-123.00877048 257.46473403 -126.82787653 255.39814701 -130 252 C-132.70307766 240.56390222 -123.94019469 225.51413851 -118.15625 215.82861328 C-113.79216446 208.92679725 -108.86159153 201.56005456 -102 197 C-99.73828125 196.57421875 -99.73828125 196.57421875 -97.3125 196.6875 C-96.3740625 196.72230469 -95.435625 196.75710938 -94.46875 196.79296875 C-93.3240625 196.86128906 -92.179375 196.92960938 -91 197 C-89.42712962 197.08033842 -87.85420895 197.15969592 -86.28125 197.23828125 C-81.85247069 197.46701801 -77.42627936 197.72731392 -73 198 C-73 197.34 -73 196.68 -73 196 C-71.88625 195.67 -70.7725 195.34 -69.625 195 C-61.42257206 191.93503582 -53.48049534 185.27488051 -49.734375 177.30859375 C-45.0323463 163.59434337 -46.44888309 149.56649025 -51.6875 136.0625 C-55.47463364 128.69631699 -60.08332945 124.30394092 -67.97924805 121.71899414 C-76.38642717 119.28840553 -84.62527191 118.40195533 -93.36230469 118.27563477 C-98.53785042 118.19532457 -102.56581134 117.98564154 -106.73828125 114.58203125 C-111.58200293 109.13735155 -114.82432636 103.13664823 -118.10546875 96.68359375 C-120.9766615 91.04391032 -124.15907821 85.71757867 -127.75 80.5 C-130.52677738 76.13478653 -132.13808492 73.27657555 -131 68 C-127.28021731 60.07524558 -118.91778411 55.90857375 -111 53 C-110.34 53 -109.68 53 -109 53 C-109 52.34 -109 51.68 -109 51 C-105.79273249 49.22723124 -102.58399753 47.45713494 -99.375 45.6875 C-98.47136719 45.18798828 -97.56773438 44.68847656 -96.63671875 44.17382812 C-83.61930877 37 -83.61930877 37 -80 37 C-79.67 36.01 -79.34 35.02 -79 34 C-77.1796875 32.71875 -77.1796875 32.71875 -74.875 31.5 C-74.06546875 31.06945312 -73.2559375 30.63890625 -72.421875 30.1953125 C-70.34457227 29.17006309 -68.27006259 28.24585874 -66.125 27.375 C-63.10094121 26.27604068 -63.10094121 26.27604068 -61.63842773 24.60839844 C-59.52550568 22.53420227 -57.25299142 21.31901324 -54.66015625 19.890625 C-53.06397461 19.00503906 -53.06397461 19.00503906 -51.43554688 18.1015625 C-50.32244141 17.49054688 -49.20933594 16.87953125 -48.0625 16.25 C-45.88610978 15.04797695 -43.71032685 13.84485366 -41.53515625 12.640625 C-40.45500244 12.04443359 -39.37484863 11.44824219 -38.26196289 10.83398438 C-34.04389967 8.46244849 -29.8957305 5.98007636 -25.7578125 3.47167969 C-18.18158145 -0.57130197 -8.35249798 -2.82699932 0 0 Z " fill="#3A0C4D" transform="translate(1164,311)"/>
<path d="M0 0 C4.69981015 3.87734337 6.72510845 9.51957944 9 15 C9.598125 15.7425 10.19625 16.485 10.8125 17.25 C14.18183468 21.48573503 16.52240873 26.20323123 19 31 C19.74056641 32.35544922 19.74056641 32.35544922 20.49609375 33.73828125 C23.89711641 40.39580719 25.41483461 46.53281732 24 54 C21.75 56.9375 21.75 56.9375 19 59 C11.84469816 66.84643895 11.27886598 78.13121259 11.53125 88.36328125 C13.2263957 101.51478664 23.55760871 112.68043267 33.56640625 120.66015625 C42.25804463 125.4454403 54.39742009 125.52799887 64 124 C68.739569 122.04334371 72.20323509 119.40720404 76 116 C76.85207031 115.30648437 77.70414063 114.61296875 78.58203125 113.8984375 C86.12043776 107.59004562 89.29835205 102.5184706 90.5078125 92.70703125 C92.28985491 89.47416373 92.94544673 89.3860748 96.36230469 88.34912109 C102.18368267 86.74161921 107.68902463 86.61587237 113.6953125 86.70703125 C114.76876923 86.71127609 115.84222595 86.71552094 116.94821167 86.71989441 C120.34074128 86.7365434 123.73265319 86.77416976 127.125 86.8125 C129.44009552 86.82756464 131.75520046 86.84124991 134.0703125 86.85351562 C139.7137486 86.88640158 145.35683015 86.93646139 151 87 C155.58050972 95.55028481 157.30674458 102.87500749 157.24291992 112.51098633 C157.24481827 113.42773132 157.24671661 114.34447632 157.24867249 115.28900146 C157.25235952 118.30343337 157.2416957 121.31762091 157.23046875 124.33203125 C157.22927443 126.44984407 157.22882432 128.56765744 157.2290802 130.68547058 C157.22751827 135.12457602 157.21925785 139.56360049 157.20581055 144.00268555 C157.18893581 149.63925035 157.18499333 155.27572541 157.18575573 160.91231251 C157.18548096 165.29061205 157.17994925 169.66889272 157.17275429 174.0471859 C157.16961201 176.12200465 157.16761084 178.1968255 157.16686058 180.2716465 C157.15921198 190.37869915 157.06810847 200.46865835 156.57543945 210.56518555 C156.52227082 211.72091049 156.52227082 211.72091049 156.46802807 212.89998341 C156.15046362 218.63519305 155.15063638 223.69029486 153 229 C152.76152344 229.68578125 152.52304687 230.3715625 152.27734375 231.078125 C150.59391892 235.60405405 150.59391892 235.60405405 148.25390625 237.1640625 C141.40391574 239.70461357 133.42105198 238.52486854 126.90625 235.56640625 C121.52333308 232.66512979 116.35159009 229.42558606 111.1640625 226.19140625 C92.60867955 214.65454833 73.51137538 203.22177135 53.69140625 193.97900391 C52 193 52 193 50.48828125 191.47802734 C48.11270452 189.11881778 45.06545661 188.2684648 42 187 C39.0625 185.4375 39.0625 185.4375 37 184 C37 183.34 37 182.68 37 182 C36.30519531 181.90589844 35.61039063 181.81179688 34.89453125 181.71484375 C31.40627344 180.85337117 28.78258977 179.38025113 25.6875 177.5625 C24.61886719 176.94503906 23.55023437 176.32757812 22.44921875 175.69140625 C21.64097656 175.13324219 20.83273437 174.57507813 20 174 C20 173.34 20 172.68 20 172 C19.3090625 171.73445312 18.618125 171.46890625 17.90625 171.1953125 C8.61550946 167.37412083 0.00127164 162.49174218 -8.484375 157.15234375 C-12.41287425 154.71221922 -16.44928974 152.47947777 -20.5 150.25 C-27.36423532 146.46964291 -34.19561243 142.63718221 -41 138.75 C-41.84755859 138.26692383 -42.69511719 137.78384766 -43.56835938 137.28613281 C-48.67711857 134.36369852 -53.73995127 131.37301522 -58.78076172 128.33496094 C-61.36107956 126.78279615 -63.95791688 125.26105586 -66.5625 123.75 C-70.19758165 121.63900206 -73.82364545 119.51426037 -77.4375 117.3671875 C-78.20247803 116.91375977 -78.96745605 116.46033203 -79.75561523 115.99316406 C-81.27211271 115.09376181 -82.78729204 114.1921326 -84.30102539 113.28808594 C-84.99703857 112.8759082 -85.69305176 112.46373047 -86.41015625 112.0390625 C-87.03027588 111.66990723 -87.65039551 111.30075195 -88.28930664 110.92041016 C-90.15698268 109.8526646 -90.15698268 109.8526646 -93 109 C-93 108.34 -93 107.68 -93 107 C-93.81726563 106.76539063 -94.63453125 106.53078125 -95.4765625 106.2890625 C-99.73071995 104.73266343 -103.46373396 102.63830042 -107.375 100.375 C-108.11105469 99.95476562 -108.84710937 99.53453125 -109.60546875 99.1015625 C-111.4063765 98.07247236 -113.20357318 97.03689244 -115 96 C-115 95.34 -115 94.68 -115 94 C-115.58523438 93.89042969 -116.17046875 93.78085937 -116.7734375 93.66796875 C-120.63792798 92.50862161 -123.28317304 89.90844195 -126 87 C-128.55274705 82.1164839 -128.94604961 76.40108323 -128 71 C-123.40715321 61.95896302 -111.04056307 55.59963704 -102 52 C-101.01 52 -100.02 52 -99 52 C-99 51.34 -99 50.68 -99 50 C-98.09378906 49.56429687 -97.18757812 49.12859375 -96.25390625 48.6796875 C-89.91779431 45.59532261 -83.92504685 42.43804005 -78.1328125 38.3984375 C-75.09047247 36.40364312 -71.87444312 34.86368325 -68.60546875 33.27734375 C-62.47901289 30.27381891 -56.47577798 27.09401566 -50.875 23.1875 C-46.00521069 19.85095383 -40.82448196 17.19475069 -35.59814453 14.47094727 C-27.73677365 10.36729437 -19.84979997 6.16227502 -12.41796875 1.31640625 C-8.34068682 -0.90337406 -4.48595674 -1.12148919 0 0 Z " fill="#3A0C4D" transform="translate(660,597)"/>
<path d="M0 0 C9.26086457 1.87561814 17.09744227 7.07876742 24.83203125 12.2265625 C27.70066065 14.13224823 30.58808554 15.96910144 33.53515625 17.75 C34.24414062 18.17925781 34.953125 18.60851562 35.68359375 19.05078125 C37.6683737 20.1621328 39.69920032 21.19107774 41.7421875 22.19140625 C47.14772048 24.86837818 52.28741488 27.986693 57.47265625 31.0625 C65.9766238 36.07776128 74.54311359 40.88161053 83.35864258 45.32861328 C84.0833374 45.69841309 84.80803223 46.06821289 85.5546875 46.44921875 C86.18221924 46.76334717 86.80975098 47.07747559 87.45629883 47.40112305 C89.32504781 48.53779584 90.64386564 49.87105354 92.16015625 51.4375 C94.19247867 52.63349068 94.19247867 52.63349068 96.34765625 53.625 C97.06308594 53.96917969 97.77851562 54.31335938 98.515625 54.66796875 C99.05832031 54.92191406 99.60101562 55.17585937 100.16015625 55.4375 C100.16015625 56.0975 100.16015625 56.7575 100.16015625 57.4375 C100.86011719 57.53289063 101.56007813 57.62828125 102.28125 57.7265625 C105.70044845 58.57092358 108.20455317 60.00392748 111.22265625 61.8125 C112.24488281 62.41835938 113.26710938 63.02421875 114.3203125 63.6484375 C120.90947311 67.79951805 120.90947311 67.79951805 121.8984375 70.31640625 C122.59409104 75.95431482 123.28054921 82.47323847 120.16015625 87.4375 C116.25086375 90.9376805 112.40642217 93.59482947 107.78515625 96.125 C102.51310098 99.05509776 97.37655508 102.14170315 92.28515625 105.375 C85.13528896 109.89445835 77.82945342 114.06329667 70.43652344 118.16894531 C65.97798716 120.65356077 61.53649958 123.1679162 57.09765625 125.6875 C56.21698486 126.1829834 55.33631348 126.6784668 54.42895508 127.18896484 C50.61197596 129.35852395 46.9016322 131.54914433 43.3515625 134.13671875 C40.65477353 136.08091545 38.1521378 137.5876666 35.16015625 139 C28.36790987 142.22855132 22.0465384 146.10769956 15.68896484 150.10595703 C8.36283306 154.70865892 1.11164196 159.1506277 -6.7109375 162.8671875 C-15.98822087 167.52320238 -24.85596908 173.06031869 -33.76953125 178.37109375 C-34.54917236 178.83418945 -35.32881348 179.29728516 -36.13208008 179.77441406 C-37.61880727 180.65887205 -39.10312437 181.54739691 -40.5847168 182.44042969 C-45.61795998 185.4375 -45.61795998 185.4375 -47.83984375 185.4375 C-47.83984375 186.0975 -47.83984375 186.7575 -47.83984375 187.4375 C-49.48984375 187.7675 -51.13984375 188.0975 -52.83984375 188.4375 C-52.83984375 189.0975 -52.83984375 189.7575 -52.83984375 190.4375 C-53.47921875 190.56125 -54.11859375 190.685 -54.77734375 190.8125 C-55.45796875 191.01875 -56.13859375 191.225 -56.83984375 191.4375 C-57.16984375 192.0975 -57.49984375 192.7575 -57.83984375 193.4375 C-59.4400842 194.12084592 -61.04269193 194.79898312 -62.65429688 195.45507812 C-67.16557423 197.4829356 -71.34572058 200.15959109 -75.58984375 202.6875 C-86.05082009 208.86533235 -96.62196619 214.80882966 -107.28027344 220.63769531 C-108.36985352 221.23678711 -109.45943359 221.83587891 -110.58203125 222.453125 C-112.03391846 223.24638184 -112.03391846 223.24638184 -113.51513672 224.05566406 C-115.92634959 225.35965327 -115.92634959 225.35965327 -117.83984375 227.4375 C-118.89171875 227.8396875 -118.89171875 227.8396875 -119.96484375 228.25 C-124.44385242 230.10002532 -128.99062958 232.53717689 -132.39453125 236.03515625 C-136.27996004 239.80507229 -143.13434804 238.96756643 -148.20117188 239.03125 C-154.17565172 238.88612094 -154.17565172 238.88612094 -157.06640625 236.93359375 C-158.47512173 234.72545384 -159.18092684 232.97903665 -159.83984375 230.4375 C-160.17836868 229.29397064 -160.51689362 228.15044128 -160.86567688 226.97225952 C-162.15557385 221.76951357 -162.11247772 216.68504745 -162.08276367 211.35009766 C-162.08466202 210.26593567 -162.08656036 209.18177368 -162.08851624 208.0647583 C-162.09220892 204.49361853 -162.0815335 200.92268412 -162.0703125 197.3515625 C-162.06911878 194.8502098 -162.06866794 192.34885664 -162.06892395 189.84750366 C-162.06736119 184.60387836 -162.05933967 179.36030506 -162.0456543 174.11669922 C-162.02829524 167.44198801 -162.02483774 160.76736724 -162.02559948 154.09263039 C-162.02532544 148.92259008 -162.01980564 143.75256587 -162.01259804 138.58253098 C-162.00944525 136.1245066 -162.00745202 133.66648042 -162.00670433 131.20845413 C-161.99963431 120.10478848 -161.98067019 109.00492318 -161.4543457 97.91162109 C-161.42413676 97.17094706 -161.39392782 96.43027302 -161.36280346 95.66715431 C-161.08000067 90.67765692 -161.08000067 90.67765692 -158.83984375 88.4375 C-155.7231006 87.3631315 -152.7982824 87.31617038 -149.52050781 87.32397461 C-148.45971008 87.32405014 -147.39891235 87.32412567 -146.30596924 87.32420349 C-144.5979715 87.33194542 -144.5979715 87.33194542 -142.85546875 87.33984375 C-141.68473816 87.3412587 -140.51400757 87.34267365 -139.30780029 87.34413147 C-135.56845546 87.3497291 -131.82917049 87.3622812 -128.08984375 87.375 C-125.55468836 87.3800153 -123.01953204 87.38457816 -120.484375 87.38867188 C-114.26951082 87.39969776 -108.05468156 87.41643356 -101.83984375 87.4375 C-101.29714844 88.53956787 -100.75445313 89.64163574 -100.1953125 90.77709961 C-99.47281095 92.23559097 -98.75014608 93.69400143 -98.02734375 95.15234375 C-97.67091797 95.87723999 -97.31449219 96.60213623 -96.94726562 97.34899902 C-92.15358202 106.99958568 -86.16366043 114.91075608 -76.58984375 120.25 C-63.51689412 124.38976738 -51.53704591 124.34801692 -38.8203125 119 C-29.75920098 114.24974494 -25.84306771 106.53573628 -21.83984375 97.4375 C-21.17984375 97.4375 -20.51984375 97.4375 -19.83984375 97.4375 C-17.61536185 84.09060859 -17.258628 72.17560708 -24.83984375 60.4375 C-26.54440196 58.66399431 -26.54440196 58.66399431 -28.27734375 57.25 C-30.83984375 54.4375 -30.83984375 54.4375 -31.16796875 52.28515625 C-30.62149803 42.67637934 -25.82321645 33.73790294 -21.05078125 25.5703125 C-20.12568838 23.94095537 -19.26618026 22.27419354 -18.4375 20.59375 C-16.7349524 17.23028188 -14.86554592 14.03049358 -12.90234375 10.8125 C-12.23332031 9.70648437 -11.56429687 8.60046875 -10.875 7.4609375 C-5.59688436 -0.38025541 -5.59688436 -0.38025541 0 0 Z " fill="#65449A" transform="translate(1013.83984375,596.5625)"/>
<path d="M0 0 C3.67493744 2.1617279 6.29177711 4.04493366 8.1875 7.875 C8.91481197 12.38510274 8.81878172 16.84853569 8.75512695 21.40771484 C8.75371541 22.78789213 8.75451055 24.16807318 8.75733948 25.54824829 C8.75877093 29.28364237 8.72942633 33.0182296 8.69446969 36.75343657 C8.66316031 40.66115418 8.66027186 44.5688914 8.65434265 48.47671509 C8.63881757 55.87154716 8.59780751 63.26600853 8.5475952 70.66067755 C8.49165989 79.08140208 8.46420476 87.50214455 8.43911803 95.92300868 C8.38689021 113.24055335 8.29897426 130.55773745 8.1875 147.875 C-2.13014287 149.93306044 -11.85214675 151.41048971 -22.40454102 151.37597656 C-24.51128259 151.37499474 -26.61447319 151.41705263 -28.72070312 151.4609375 C-37.56975385 151.54440452 -46.20410891 150.85608063 -53.8125 145.875 C-55.83885139 143.03193502 -56.45276408 140.33984029 -57.0625 136.9375 C-58.90790269 129.16123899 -58.90790269 129.16123899 -64.6875 123.875 C-65.46867188 123.50375 -66.24984375 123.1325 -67.0546875 122.75 C-67.63476562 122.46125 -68.21484375 122.1725 -68.8125 121.875 C-68.8125 121.215 -68.8125 120.555 -68.8125 119.875 C-69.43125 119.730625 -70.05 119.58625 -70.6875 119.4375 C-72.8125 118.875 -72.8125 118.875 -74.8125 117.875 C-74.8125 117.215 -74.8125 116.555 -74.8125 115.875 C-85.71987621 113.01404886 -101.00403378 111.11506134 -111.48046875 116.2890625 C-121.16088831 122.8723964 -129.99906323 131.58522008 -133.8125 142.875 C-134.09687384 144.97024501 -134.30104186 147.07745277 -134.4375 149.1875 C-134.51097656 150.321875 -134.58445312 151.45625 -134.66015625 152.625 C-134.83648593 156.38669983 -134.88631486 160.11044219 -134.8125 163.875 C-134.1525 163.875 -133.4925 163.875 -132.8125 163.875 C-132.42578125 164.68324219 -132.0390625 165.49148438 -131.640625 166.32421875 C-130.85945313 167.92716797 -130.85945313 167.92716797 -130.0625 169.5625 C-129.55203125 170.61824219 -129.0415625 171.67398438 -128.515625 172.76171875 C-126.86504479 175.7789491 -125.00870102 178.24048155 -122.8125 180.875 C-120.82251364 184.85497271 -121.3680608 189.17488619 -122.4609375 193.35546875 C-125.17216501 201.19949023 -128.99350721 208.52665713 -132.8125 215.875 C-133.4725 215.875 -134.1325 215.875 -134.8125 215.875 C-135.10125 217.009375 -135.39 218.14375 -135.6875 219.3125 C-136.244375 221.0759375 -136.244375 221.0759375 -136.8125 222.875 C-137.4725 223.205 -138.1325 223.535 -138.8125 223.875 C-139.48691131 225.5385479 -140.1525321 227.20566942 -140.8125 228.875 C-142.3125 231.1875 -142.3125 231.1875 -143.8125 232.875 C-144.4725 232.875 -145.1325 232.875 -145.8125 232.875 C-146.4725 234.525 -147.1325 236.175 -147.8125 237.875 C-152.97250043 238.27372731 -156.02473395 237.09497995 -160.5625 234.6875 C-161.78901765 234.04678914 -163.01558051 233.40616481 -164.2421875 232.765625 C-164.84256836 232.44658203 -165.44294922 232.12753906 -166.06152344 231.79882812 C-168.5823153 230.46883978 -171.13401978 229.2033278 -173.6875 227.9375 C-175.0625 227.25 -176.4375 226.5625 -177.8125 225.875 C-177.8125 225.215 -177.8125 224.555 -177.8125 223.875 C-180.46478812 222.79974806 -183.09618454 221.78043849 -185.8125 220.875 C-185.8125 220.215 -185.8125 219.555 -185.8125 218.875 C-186.84117187 218.61847656 -187.86984375 218.36195313 -188.9296875 218.09765625 C-192.66072278 217.02351378 -195.63635422 215.3848409 -198.9375 213.3125 C-200.23563137 212.5095357 -201.53525813 211.70898657 -202.8359375 210.91015625 C-203.59229492 210.44496582 -204.34865234 209.97977539 -205.12792969 209.50048828 C-208.35010023 207.54948687 -211.59821419 205.64442283 -214.8515625 203.74609375 C-215.48059479 203.37892746 -216.10962708 203.01176117 -216.75772095 202.63346863 C-219.31874653 201.13954717 -221.88037134 199.64666699 -224.44342041 198.15621948 C-231.50900843 194.04532979 -238.48560609 189.83844592 -245.35986328 185.41162109 C-248.16757773 183.65253741 -251.03592938 182.06803518 -253.96289062 180.51855469 C-269.5440305 172.21869315 -269.5440305 172.21869315 -273.8125 165.875 C-275.29541109 160.54045701 -275.34894898 155.65981378 -272.625 150.72265625 C-270.53757428 148.43711837 -268.3035128 146.71969596 -265.8125 144.875 C-264.55719789 143.89074459 -263.30199828 142.90635844 -262.046875 141.921875 C-251.6226182 133.93523873 -240.54722245 127.58608942 -228.93310547 121.50976562 C-223.71486043 118.77612701 -218.51876292 116.0009804 -213.32336426 113.22424316 C-212.11088747 112.57640376 -210.89807961 111.9291836 -209.68493652 111.28259277 C-201.73470825 107.04344195 -193.89783355 102.66929525 -186.16845703 98.04101562 C-172.50338183 89.875 -172.50338183 89.875 -168.8125 89.875 C-168.3175 88.39 -168.3175 88.39 -167.8125 86.875 C-166.4925 86.875 -165.1725 86.875 -163.8125 86.875 C-163.8125 86.215 -163.8125 85.555 -163.8125 84.875 C-163.1525 84.875 -162.4925 84.875 -161.8125 84.875 C-161.8125 84.215 -161.8125 83.555 -161.8125 82.875 C-160.70390625 82.33230469 -159.5953125 81.78960937 -158.453125 81.23046875 C-156.98947731 80.50802726 -155.5259415 79.78535908 -154.0625 79.0625 C-153.33289063 78.70607422 -152.60328125 78.34964844 -151.8515625 77.98242188 C-148.23585007 76.19100072 -144.98345629 74.39804455 -141.8125 71.875 C-141.07 71.58625 -140.3275 71.2975 -139.5625 71 C-137.23937618 70.04963116 -135.48928125 69.08075656 -133.40625 67.7265625 C-127.93504434 64.26642812 -122.24089816 61.22825797 -116.5625 58.125 C-98.09154968 47.9583447 -79.66756143 37.46086207 -62.71484375 24.890625 C-58.02363385 21.63266496 -53.00877351 19.21448124 -47.8125 16.875 C-47.09964844 16.53597656 -46.38679687 16.19695312 -45.65234375 15.84765625 C-42.38511223 14.34237124 -40.50300263 13.875 -36.8125 13.875 C-36.8125 13.215 -36.8125 12.555 -36.8125 11.875 C-34.69017021 10.70323482 -32.56492209 9.53745215 -30.4375 8.375 C-29.83421875 8.04113281 -29.2309375 7.70726563 -28.609375 7.36328125 C-24.0390625 4.875 -24.0390625 4.875 -21.8125 4.875 C-21.8125 4.215 -21.8125 3.555 -21.8125 2.875 C-14.33133857 -1.55828085 -8.41238252 -2.48234238 0 0 Z " fill="#3A0C4D" transform="translate(805.8125,105.125)"/>
<path d="M0 0 C9.93017322 0.23908924 17.40533526 2.81192856 25.7421875 8.19140625 C27.92567321 9.63989123 27.92567321 9.63989123 30.87109375 10.49609375 C31.38671875 11.09421875 31.90234375 11.69234375 32.43359375 12.30859375 C35.49686508 15.05768341 38.58817391 16.10292252 42.43359375 17.46875 C44.93209538 18.52180437 46.74125082 19.83954925 48.87109375 21.49609375 C51.01843302 22.20124221 51.01843302 22.20124221 52.87109375 22.49609375 C52.87109375 23.15609375 52.87109375 23.81609375 52.87109375 24.49609375 C53.67546875 24.74359375 54.47984375 24.99109375 55.30859375 25.24609375 C67.84464539 29.64470836 67.84464539 29.64470836 71.87109375 33.49609375 C71.87109375 34.15609375 71.87109375 34.81609375 71.87109375 35.49609375 C72.88171875 35.72296875 73.89234375 35.94984375 74.93359375 36.18359375 C78.45420624 37.18847915 80.97396963 38.87431098 83.89599609 41.0949707 C86.09237923 42.65307241 88.34517663 43.8991532 90.72265625 45.1640625 C95.09911454 47.52268059 99.43978105 49.9357725 103.75390625 52.40625 C104.64015686 52.91359177 104.64015686 52.91359177 105.54431152 53.43118286 C107.36205697 54.47281055 109.17914177 55.51558269 110.99609375 56.55859375 C113.41493255 57.94606745 115.83426783 59.3326713 118.25390625 60.71875 C119.3941626 61.37214355 120.53441895 62.02553711 121.70922852 62.69873047 C124.38786568 64.2214026 127.07856012 65.71599983 129.78125 67.1953125 C134.34163224 69.71405479 138.65889598 72.55199688 142.98242188 75.453125 C145.88346151 77.36127816 148.39667654 78.98136528 151.87109375 79.49609375 C151.87109375 80.15609375 151.87109375 80.81609375 151.87109375 81.49609375 C152.59780273 81.77155029 153.32451172 82.04700684 154.07324219 82.33081055 C156.73676259 83.44014588 159.14110535 84.69764335 161.63671875 86.140625 C162.52746094 86.65302734 163.41820312 87.16542969 164.3359375 87.69335938 C165.25503906 88.22638672 166.17414063 88.75941406 167.12109375 89.30859375 C168.93849902 90.35729622 170.75620479 91.40547811 172.57421875 92.453125 C173.45787109 92.96439941 174.34152344 93.47567383 175.25195312 94.00244141 C178.46620549 95.83547608 181.71909089 97.59211605 184.98730469 99.3269043 C186.87109375 100.49609375 186.87109375 100.49609375 188.39672852 102.02929688 C190.01726048 103.64151016 191.38749262 104.35935114 193.4765625 105.265625 C194.56336304 105.75228638 194.56336304 105.75228638 195.67211914 106.2487793 C196.45965576 106.59851807 197.24719238 106.94825684 198.05859375 107.30859375 C210.15327424 112.84701405 221.47914353 119.65523982 232.87109375 126.49609375 C233.75474609 127.0262207 234.63839844 127.55634766 235.54882812 128.10253906 C237.22833984 129.11037342 238.90763121 130.11857508 240.58666992 131.12719727 C242.62318523 132.3475394 244.66370266 133.56064532 246.70703125 134.76953125 C254.57833083 139.43537338 262.44741758 144.13454985 269.87109375 149.49609375 C270.46535156 149.91503906 271.05960938 150.33398438 271.671875 150.765625 C273.65213045 153.62312716 273.30521996 156.39769217 273.30859375 159.80859375 C273.33759766 161.75185547 273.33759766 161.75185547 273.3671875 163.734375 C272.7631077 168.31491711 271.99640393 170.07291676 268.87109375 173.49609375 C265.32482984 175.90326591 261.6069035 177.89255298 257.80859375 179.87109375 C256.80248047 180.41636719 255.79636719 180.96164062 254.75976562 181.5234375 C247.30730146 185.49609375 247.30730146 185.49609375 243.87109375 185.49609375 C243.87109375 186.15609375 243.87109375 186.81609375 243.87109375 187.49609375 C243.03449219 187.96917969 242.19789063 188.44226563 241.3359375 188.9296875 C229.93099159 195.39994439 218.55119669 201.91244817 207.7109375 209.30078125 C205.20885879 210.92633557 202.53840961 212.16243582 199.87109375 213.49609375 C198.44373726 214.4172366 197.02809721 215.3566526 195.62109375 216.30859375 C187.96878513 221.48252529 180.13758082 225.91047994 171.84765625 229.98046875 C163.83468201 233.98356372 163.83468201 233.98356372 156.87109375 239.49609375 C154.59375 239.796875 154.59375 239.796875 151.93359375 239.80859375 C151.05832031 239.82535156 150.18304687 239.84210938 149.28125 239.859375 C146.39321759 239.42406379 145.62036035 238.78805451 143.87109375 236.49609375 C142.90762603 234.63560436 141.95051681 232.77121059 141.04296875 230.8828125 C136.42772695 219.81456308 136.42772695 219.81456308 128.87109375 211.49609375 C127.34725104 208.20459349 126.01799018 204.93678303 124.87109375 201.49609375 C124.21109375 201.49609375 123.55109375 201.49609375 122.87109375 201.49609375 C120.50611908 196.91395532 120.17480879 192.53786796 120.87109375 187.49609375 C122.14322716 183.88022688 123.67401302 180.66624017 126.43359375 177.96875 C128.54089968 175.8099067 129.04702469 173.3486405 129.87109375 170.49609375 C130.53109375 170.49609375 131.19109375 170.49609375 131.87109375 170.49609375 C133.1489558 162.6880548 132.98267522 154.88246694 132.93359375 146.99609375 C132.92856908 145.58724117 132.92400788 144.17838686 132.91992188 142.76953125 C132.90819405 139.34500737 132.89178066 135.92057328 132.87109375 132.49609375 C132.21109375 132.49609375 131.55109375 132.49609375 130.87109375 132.49609375 C130.12859375 131.73296875 129.38609375 130.96984375 128.62109375 130.18359375 C126.0736672 127.41288277 126.0736672 127.41288277 123.05859375 126.12109375 C119.44005721 124.27634963 117.03614821 121.98040181 114.19140625 119.1171875 C108.32360546 115.01762971 100.96680355 115.11052872 94.05859375 115.12109375 C93.18219238 115.11980469 92.30579102 115.11851562 91.40283203 115.1171875 C84.5541284 115.22877534 79.09691237 116.62658064 72.87109375 119.49609375 C72.21109375 119.49609375 71.55109375 119.49609375 70.87109375 119.49609375 C69.88109375 121.47609375 69.88109375 121.47609375 68.87109375 123.49609375 C68.21109375 123.49609375 67.55109375 123.49609375 66.87109375 123.49609375 C66.60296875 124.07359375 66.33484375 124.65109375 66.05859375 125.24609375 C64.84180186 127.55159418 63.56775496 129.51665567 61.87109375 131.49609375 C61.21109375 131.49609375 60.55109375 131.49609375 59.87109375 131.49609375 C58.75034258 134.21646249 57.72579172 136.93094692 56.79296875 139.72265625 C56.21289062 141.40488281 56.21289062 141.40488281 55.62109375 143.12109375 C55.2446875 144.24773437 54.86828125 145.374375 54.48046875 146.53515625 C52.36139594 150.43383875 51.04879982 150.96424028 46.87109375 152.49609375 C42.84476012 152.93090083 38.84349841 152.91649319 34.796875 152.89453125 C33.63608932 152.89740143 32.47530365 152.90027161 31.27934265 152.90322876 C28.83262645 152.90526574 26.38589383 152.89976156 23.93920898 152.88720703 C20.18631864 152.87110544 16.43449821 152.88709149 12.68164062 152.90625 C10.30338303 152.90426836 7.92512611 152.90042633 5.546875 152.89453125 C3.85936882 152.90364029 3.85936882 152.90364029 2.13777161 152.91293335 C1.0962645 152.90347687 0.05475739 152.89402039 -1.01831055 152.88427734 C-2.39348091 152.88069717 -2.39348091 152.88069717 -3.7964325 152.87704468 C-6.67433078 152.40701237 -7.37773819 151.79811388 -9.12890625 149.49609375 C-9.50922298 147.06494904 -9.50922298 147.06494904 -9.5165863 144.12219238 C-9.52649094 143.00646851 -9.53639557 141.89074463 -9.54660034 140.74121094 C-9.54209869 139.5162793 -9.53759705 138.29134766 -9.53295898 137.02929688 C-9.53982224 135.73954956 -9.54668549 134.44980225 -9.55375671 133.12097168 C-9.57173089 129.57912962 -9.57051028 126.03753479 -9.56481433 122.49566078 C-9.5617245 119.53401771 -9.56781356 116.57242226 -9.57385308 113.61078596 C-9.58791449 106.61483275 -9.58632739 99.61900155 -9.57495117 92.62304688 C-9.56350499 85.42546222 -9.57748251 78.2282517 -9.60434765 71.03071642 C-9.62658183 64.84027511 -9.63312366 58.64995054 -9.62727123 52.45947218 C-9.62391435 48.76745126 -9.62622975 45.07566933 -9.64352226 41.38368225 C-9.66201389 37.25490111 -9.64772549 33.12683407 -9.63061523 28.99804688 C-9.6402832 27.78930908 -9.64995117 26.58057129 -9.65991211 25.33520508 C-9.59887981 18.27083312 -8.81882343 2.05502858 0 0 Z " fill="#64449A" transform="translate(862.12890625,103.50390625)"/>
<path d="M0 0 C12.85772338 3.13568087 23.95521613 10.38982741 35.10498047 17.23583984 C39.93009487 20.17615665 44.81295433 23.01769404 49.6875 25.875 C56.09054932 29.64529522 62.41171443 33.49222935 68.6484375 37.53125 C72.03633644 39.6472799 75.5394864 41.52295359 79.05859375 43.41015625 C88.22681869 48.36562445 97.17292387 53.64548577 105.96484375 59.23828125 C109.24482425 61.14210519 112.50107633 62.54418306 116 64 C117.68535024 64.96817992 119.36021682 65.95650161 121 67 C120.44422287 71.95631388 118.82877504 75.92957869 116.5625 80.3125 C116.037771 81.34431396 116.037771 81.34431396 115.50244141 82.39697266 C110.77089571 91.56395418 105.41429049 100.37159385 100.06640625 109.1875 C99.52886719 110.074375 98.99132812 110.96125 98.4375 111.875 C97.98246094 112.61492187 97.52742187 113.35484375 97.05859375 114.1171875 C95.85554219 116.11788542 95.85554219 116.11788542 95 119 C94.12432373 119.029729 94.12432373 119.029729 93.23095703 119.06005859 C90.52859732 119.15662861 87.82687606 119.26575973 85.125 119.375 C84.2071875 119.4059375 83.289375 119.436875 82.34375 119.46875 C69.66804765 120.00434306 54.28464874 122.44494962 44.6875 131.5 C42.16708413 134.40170955 40.83193276 137.21008411 40 141 C39.34 141 38.68 141 38 141 C36.98652578 148.367178 36.90264775 155.51007971 37.125 162.9375 C37.1353125 164.05318359 37.145625 165.16886719 37.15625 166.31835938 C37.44544865 175.81186129 39.85711733 182.96536945 46.5 189.875 C47.65230761 190.93252906 48.81790213 191.97587834 50 193 C50.86625 193.78375 51.7325 194.5675 52.625 195.375 C55.14808263 197.1013197 56.98542373 197.655477 60 198 C60 198.66 60 199.32 60 200 C61.54324951 199.97474243 61.54324951 199.97474243 63.11767578 199.94897461 C66.95372708 199.89814439 70.78778789 199.90675677 74.62402344 199.93286133 C76.28064728 199.93593394 77.9373828 199.92311941 79.59375 199.89379883 C93.32290855 199.66690468 93.32290855 199.66690468 97.31982422 202.84399414 C98.88516002 205.17135605 99.96066538 207.40005871 101 210 C101.67804688 211.11503906 102.35609375 212.23007812 103.0546875 213.37890625 C106.65492074 219.67545152 110.10844653 226.02321294 113.375 232.5 C113.87555908 233.48722046 113.87555908 233.48722046 114.38623047 234.49438477 C116.25374661 238.25390119 117.77345948 241.98586737 119 246 C119.66 246 120.32 246 121 246 C121 248.31 121 250.62 121 253 C114.25 257 114.25 257 112 257 C112 257.66 112 258.32 112 259 C111.113125 259.4125 110.22625 259.825 109.3125 260.25 C106.03213675 261.84392997 106.03213675 261.84392997 103.625 263.9375 C101.44505369 265.65031496 99.71043029 266.70313498 97.25 267.875 C94.29292984 269.28782241 91.67613467 270.86036293 89 272.75 C82.98239235 276.8772597 76.39772405 279.93184925 69.84228516 283.09912109 C68.09459774 283.95374163 66.36498683 284.84504165 64.63671875 285.73828125 C62 287 62 287 60 287 C60 287.66 60 288.32 60 289 C55.40753965 291.59003439 50.79673878 294.1279054 46.10546875 296.53515625 C45.29529297 296.95216797 44.48511719 297.36917969 43.65039062 297.79882812 C41.99140888 298.65002653 40.32988641 299.49628906 38.66601562 300.33789062 C34.46601874 302.51030281 31.23413085 304.48395944 28 308 C27.01 308.33 26.02 308.66 25 309 C24.67 309.66 24.34 310.32 24 311 C22.329375 311.7115625 22.329375 311.7115625 20.625 312.4375 C17.14858055 313.66948636 17.14858055 313.66948636 15.546875 315.4609375 C10.79812334 320.18570557 3.61211172 321.3374644 -2.8125 321.6875 C-8.28343655 321.51351262 -8.28343655 321.51351262 -10.90234375 319.63671875 C-13.6177912 316.08695991 -14.67314317 312.4670434 -15 308 C-15.66 308 -16.32 308 -17 308 C-17.87387667 304.98483509 -18.12523709 302.30327975 -18.12584114 299.16846466 C-18.12844889 298.19255009 -18.13105664 297.21663552 -18.13374341 296.21114779 C-18.13151268 295.14151906 -18.12928196 294.07189034 -18.12698364 292.96984863 C-18.12854363 291.83150306 -18.13010362 290.69315749 -18.13171089 289.5203166 C-18.13571161 285.69126576 -18.13253472 281.86225429 -18.12939453 278.03320312 C-18.13019874 275.29349688 -18.13249303 272.55379233 -18.13470459 269.81408691 C-18.13915633 263.13432924 -18.13818812 256.45458279 -18.13529195 249.77482468 C-18.13303408 244.34214598 -18.13272707 238.90947042 -18.13381577 233.47679138 C-18.133969 232.70369687 -18.13412223 231.93060236 -18.13428011 231.13408074 C-18.13459984 229.56347565 -18.13492405 227.99287056 -18.1352527 226.42226547 C-18.13810614 211.68398038 -18.13482339 196.9457015 -18.12945233 182.20741743 C-18.1249915 169.5764262 -18.12575454 156.94544418 -18.13037109 144.31445312 C-18.13573148 129.64150322 -18.137824 114.96855879 -18.13475883 100.29560804 C-18.13444029 98.72831694 -18.13412592 97.16102584 -18.13381577 95.59373474 C-18.13366149 94.82265236 -18.13350721 94.05156998 -18.13334826 93.25712147 C-18.13248697 87.83853232 -18.13393778 82.41994665 -18.13629532 77.00135803 C-18.13911009 70.38637502 -18.1383201 63.77140386 -18.13301457 57.1564222 C-18.13039903 53.78485294 -18.12988046 50.41331962 -18.13266373 47.04174805 C-18.13540966 43.37648608 -18.13195205 39.71127901 -18.12698364 36.04602051 C-18.12921436 34.99423756 -18.13144509 33.94245461 -18.13374341 32.85879946 C-18.12037931 27.75055084 -17.98975716 22.6589452 -17.67956352 17.55962372 C-17.62270154 16.61257804 -17.56583956 15.66553237 -17.50725448 14.68978834 C-16.91862298 11.56848688 -15.87547391 9.55098396 -14 7 C-13.34 7 -12.68 7 -12 7 C-11.8453125 6.1028125 -11.8453125 6.1028125 -11.6875 5.1875 C-9.78861222 -0.85441565 -5.64821514 -0.45759964 0 0 Z " fill="#65449A" transform="translate(515,309)"/>
<path d="M0 0 C16.17 0 32.34 0 49 0 C49 30.03 49 60.06 49 91 C79.36 91 109.72 91 141 91 C141 60.97 141 30.94 141 0 C157.17 0 173.34 0 190 0 C190 76.56 190 153.12 190 232 C173.83 232 157.66 232 141 232 C141 199 141 166 141 132 C110.64 132 80.28 132 49 132 C49 165 49 198 49 232 C32.83 232 16.66 232 0 232 C0 155.44 0 78.88 0 0 Z " fill="#3B1B72" transform="translate(131,867)"/>
<path d="M0 0 C1.46566406 0.25716797 1.46566406 0.25716797 2.9609375 0.51953125 C15.40209394 3.10449003 27.61130755 9.45968337 37 18 C37.68320312 18.61488281 38.36640625 19.22976563 39.0703125 19.86328125 C55.75926579 35.69557724 64.42625095 59.05471115 65.3359375 81.796875 C65.77161834 110.50872131 61.52120393 137.11020087 41.24609375 158.71875 C23.81477697 176.42290478 1.90592369 182.02357673 -22.3125 182.375 C-45.71119784 182.36158991 -66.36629682 174.79591138 -83.50390625 158.58203125 C-101.3724752 140.098269 -107.44590024 114.18378466 -107.3125 89.25 C-107.31067719 88.54345276 -107.30885437 87.83690552 -107.30697632 87.10894775 C-107.19161174 60.56908113 -100.07463075 38.30898285 -81.76171875 18.58984375 C-72.63445484 9.64665911 -60.38491451 3.88468506 -48 1 C-47.00484375 0.72414063 -46.0096875 0.44828125 -44.984375 0.1640625 C-30.2860918 -3.56178138 -14.80519193 -2.88388974 0 0 Z " fill="#3C1C72" transform="translate(853,920)"/>
<path d="M0 0 C10.6483815 9.48497715 16.90418145 23.14623167 17.75476456 37.29652786 C17.81879291 40.68383889 17.82175792 44.06575435 17.80126953 47.45361328 C17.80156158 48.73279129 17.80185364 50.0119693 17.80215454 51.32991028 C17.80272387 54.80653757 17.7910384 58.28302434 17.77700663 61.75961924 C17.76442848 65.40442583 17.76332322 69.04923633 17.76095581 72.69406128 C17.75476172 79.58216466 17.73837921 86.47020387 17.71825683 93.35827911 C17.69583303 101.20599472 17.68488817 109.05371354 17.67486596 116.90145326 C17.65401092 133.03200181 17.61736087 149.16246207 17.57421875 165.29296875 C6.35421875 165.29296875 -4.86578125 165.29296875 -16.42578125 165.29296875 C-19.39578125 157.70296875 -22.36578125 150.11296875 -25.42578125 142.29296875 C-29.13904824 144.14960225 -30.0591227 144.80469796 -32.42578125 147.85546875 C-42.08157857 159.17889844 -54.88303144 166.17043752 -69.61328125 168.01171875 C-87.37538536 169.32203791 -106.47388856 169.81983973 -121.12109375 158.14453125 C-132.28773598 148.34523297 -139.3337729 136.65703023 -140.66210938 121.6171875 C-141.6072611 103.93447557 -139.75444994 89.13031938 -127.6875 75.30078125 C-119.9646288 67.8590424 -108.68810854 63.04497693 -98.42578125 60.29296875 C-97.24371094 59.97199219 -96.06164063 59.65101563 -94.84375 59.3203125 C-73.82463291 54.15028773 -51.89628334 54.93000838 -30.42578125 55.29296875 C-30.54891401 52.74413941 -30.68182648 50.19644109 -30.8203125 47.6484375 C-30.85386841 46.93296753 -30.88742432 46.21749756 -30.92199707 45.48034668 C-31.34649921 37.95351435 -32.93860559 32.01150959 -38.11328125 26.35546875 C-44.93706603 22.1066971 -51.65321953 20.77427638 -59.61328125 20.91796875 C-60.44206787 20.92812012 -61.27085449 20.93827148 -62.12475586 20.94873047 C-75.74986323 21.28827241 -91.60837482 24.91195045 -103.69921875 31.5390625 C-105.42578125 32.29296875 -105.42578125 32.29296875 -107.36547852 32.14746094 C-110.3367153 30.91516697 -110.79537296 29.26537791 -112.1171875 26.375 C-112.82198242 24.86389648 -112.82198242 24.86389648 -113.54101562 23.32226562 C-114.01861328 22.26072266 -114.49621094 21.19917969 -114.98828125 20.10546875 C-115.94774147 18.02856489 -116.90737201 15.9517397 -117.8671875 13.875 C-118.31078613 12.89869629 -118.75438477 11.92239258 -119.21142578 10.91650391 C-120.17592848 8.83275923 -121.20926174 6.78090131 -122.265625 4.7421875 C-123.42578125 2.29296875 -123.42578125 2.29296875 -123.42578125 -0.70703125 C-112.97578309 -5.58843629 -102.74842113 -10.22683394 -91.42578125 -12.70703125 C-90.75015137 -12.8551123 -90.07452148 -13.00319336 -89.37841797 -13.15576172 C-59.87315774 -19.30848602 -24.87532563 -18.91376399 0 0 Z " fill="#3B1C72" transform="translate(1234.42578125,933.70703125)"/>
<path d="M0 0 C10.627385 9.03246351 18.12076297 19.78551349 22.48828125 33.04296875 C22.69855957 33.6683252 22.90883789 34.29368164 23.12548828 34.93798828 C28.59905492 52.26878242 26.48828125 69.91397667 26.48828125 88.04296875 C-11.13171875 88.04296875 -48.75171875 88.04296875 -87.51171875 88.04296875 C-85.77520854 102.89970037 -85.77520854 102.89970037 -79.51171875 115.04296875 C-78.73828125 116.09871094 -78.73828125 116.09871094 -77.94921875 117.17578125 C-71.59967334 125.14210905 -63.29783782 128.83854236 -53.51171875 131.04296875 C-49.85344375 131.43861238 -46.25109026 131.47375533 -42.57421875 131.41796875 C-41.56987793 131.40564209 -40.56553711 131.39331543 -39.53076172 131.38061523 C-21.25461929 130.97714604 -5.86875984 126.52802943 11.15429688 119.93505859 C12.91650519 119.26151161 14.69854961 118.63954596 16.48828125 118.04296875 C16.48828125 130.58296875 16.48828125 143.12296875 16.48828125 156.04296875 C-16.35626606 169.72819679 -55.58376044 174.2036391 -89.41503906 160.93896484 C-99.07804416 156.80957166 -107.10899655 150.40746691 -114.51171875 143.04296875 C-115.20910156 142.38039063 -115.90648437 141.7178125 -116.625 141.03515625 C-126.0362286 131.42291112 -131.38814577 117.93930472 -134.51171875 105.04296875 C-134.77662109 104.05296875 -134.77662109 104.05296875 -135.046875 103.04296875 C-136.86080811 95.4527522 -136.81521861 87.85794357 -136.77246094 80.10400391 C-136.76180373 77.81125033 -136.77237243 75.51929136 -136.78515625 73.2265625 C-136.81090902 48.4074123 -131.06982494 24.61642193 -113.1484375 6.62109375 C-112.27832031 5.7703125 -111.40820312 4.91953125 -110.51171875 4.04296875 C-109.87878906 3.3778125 -109.24585938 2.71265625 -108.59375 2.02734375 C-81.72960813 -24.30307344 -28.32597955 -22.07047551 0 0 Z " fill="#3B1C72" transform="translate(502.51171875,933.95703125)"/>
<path d="M0 0 C7.6476329 -0.43294045 15.29209538 -0.72942348 22.94921875 -0.93383789 C25.54970291 -1.0190652 28.14937835 -1.1348969 30.74707031 -1.2824707 C51.66057816 -2.44032583 51.66057816 -2.44032583 57.06350708 1.50793457 C60.47701724 5.42955028 62.33510211 9.9348912 64.11828613 14.7706604 C65.44454676 18.12399923 67.27649096 20.92886435 69.23046875 23.9609375 C69.88853516 25.02957031 70.54660156 26.09820313 71.22460938 27.19921875 C71.87236328 28.24722656 72.52011719 29.29523437 73.1875 30.375 C73.84685547 31.44621094 74.50621094 32.51742187 75.18554688 33.62109375 C78.96261104 39.74626381 82.79895888 45.82328264 86.7434082 51.84228516 C88 54 88 54 88 56 C90.49226843 53.70703923 92.16019705 51.31380796 93.8984375 48.4140625 C94.45402344 47.49318848 95.00960937 46.57231445 95.58203125 45.62353516 C96.17371094 44.63401855 96.76539063 43.64450195 97.375 42.625 C98.63215603 40.54127047 99.8899841 38.45794626 101.1484375 36.375 C101.78749023 35.31539062 102.42654297 34.25578125 103.08496094 33.1640625 C106.02869179 28.30037665 109.00954172 23.46005641 112 18.625 C112.772229 17.37130615 112.772229 17.37130615 113.56005859 16.09228516 C114.30376709 14.89031494 114.30376709 14.89031494 115.0625 13.6640625 C115.48660156 12.97779785 115.91070313 12.2915332 116.34765625 11.58447266 C116.89292969 10.73159668 117.43820312 9.8787207 118 9 C118.5361644 7.87964104 118.5361644 7.87964104 119.0831604 6.73664856 C120.51187533 4.07090365 121.803672 2.08861552 124 0 C128.14426624 -1.24319302 132.10363738 -1.05235205 136.3984375 -0.87890625 C137.58853424 -0.86617172 138.77863098 -0.85343719 140.00479126 -0.84031677 C143.7969547 -0.79003038 147.58428944 -0.6771297 151.375 -0.5625 C153.94914952 -0.517348 156.52337424 -0.47628471 159.09765625 -0.43945312 C165.40007824 -0.34035355 171.69969423 -0.18986161 178 0 C176.77659233 3.25882353 175.42521217 6.11685889 173.50756836 9.01953125 C173.00695892 9.78193619 172.50634949 10.54434113 171.99057007 11.32984924 C171.44583038 12.14912399 170.9010907 12.96839874 170.33984375 13.8125 C169.76593903 14.68265244 169.1920343 15.55280487 168.60073853 16.44932556 C167.36217353 18.3252723 166.12141245 20.19977057 164.87869263 22.07296753 C162.92607018 25.01723448 160.9809374 27.9663417 159.03686523 30.91625977 C152.60004416 40.66523005 146.09644767 50.36068414 139.4453125 59.96484375 C138.27207348 61.66721895 137.09897429 63.36969052 135.92602539 65.07226562 C133.71892044 68.27453365 131.4882749 71.45854752 129.24389648 74.63476562 C128.2463659 76.07752581 127.24965357 77.52085223 126.25390625 78.96484375 C125.78876617 79.60872543 125.3236261 80.25260712 124.84439087 80.91600037 C122.46554013 84.36045439 122.46554013 84.36045439 122.38696289 88.39990234 C123.18541626 89.68695068 123.18541626 89.68695068 124 91 C124.37252396 91.60689163 124.74504791 92.21378326 125.12886047 92.83906555 C126.56520259 95.13238643 128.05447104 97.38467911 129.5546875 99.63671875 C130.12029892 100.49338135 130.68591034 101.35004395 131.2686615 102.23266602 C133.13308297 105.0538544 135.00400219 107.87066964 136.875 110.6875 C138.16921103 112.64340644 139.46307055 114.59954551 140.7565918 116.5559082 C147.53074024 126.79314571 154.33568528 137.0097821 161.15234375 147.21875 C161.80104431 148.19052689 162.44974487 149.16230377 163.11810303 150.16352844 C166.24568453 154.84770966 169.37649801 159.52967358 172.51318359 164.20776367 C173.64032727 165.89239677 174.76744464 167.57704747 175.89453125 169.26171875 C176.4149852 170.03563965 176.93543915 170.80956055 177.47166443 171.60693359 C181 176.88692862 181 176.88692862 181 178 C173.40845497 178.53624367 165.8218177 178.9015432 158.21557617 179.15356445 C155.63494621 179.25864922 153.05555184 179.40160154 150.47924805 179.58422852 C129.73607866 181.01686761 129.73607866 181.01686761 123.63537598 176.09057617 C119.45281977 171.14217836 116.75482485 165.54026956 114.18283081 159.63082886 C112.58806433 156.08378083 110.59389845 152.90004429 108.4765625 149.6484375 C106.539306 146.49413715 104.60306058 143.33922255 102.66796875 140.18359375 C98.94517752 134.12375853 95.16259476 128.11459322 91.26318359 122.16650391 C90 120 90 120 90 118 C89.34 118 88.68 118 88 118 C87.73678955 118.71285156 87.4735791 119.42570312 87.20239258 120.16015625 C85.94794672 123.12294085 84.45845595 125.70490746 82.76171875 128.4375 C82.11243408 129.48760254 81.46314941 130.53770508 80.79418945 131.61962891 C80.09898193 132.73515137 79.40377441 133.85067383 78.6875 135 C77.96733029 136.16172243 77.24752619 137.32367158 76.52807617 138.48583984 C75.06475192 140.84830924 73.59926071 143.20941142 72.13183594 145.56933594 C70.1583438 148.74361957 68.19141465 151.92192189 66.2265625 155.1015625 C64.07575457 158.58168298 61.92426508 162.0613711 59.76953125 165.5390625 C59.35292236 166.21146973 58.93631348 166.88387695 58.50708008 167.57666016 C58.00974365 168.3763623 57.51240723 169.17606445 57 170 C56.72109421 170.67017151 56.44218842 171.34034302 56.15483093 172.03082275 C54.99159557 174.47773414 53.98191568 176.14021468 52 178 C47.82799594 179.13205482 43.7760956 178.9319125 39.48046875 178.78125 C37.65990715 178.76427063 37.65990715 178.76427063 35.80256653 178.74694824 C31.92926633 178.70219489 28.05967954 178.60181731 24.1875 178.5 C21.56060036 178.45987243 18.93364266 178.42337043 16.30664062 178.390625 C9.86982862 178.30246193 3.43517954 178.16862861 -3 178 C0.193711 172.05909888 3.6197275 166.3853641 7.41015625 160.80859375 C8.47477691 159.22684095 9.53871138 157.64462614 10.60205078 156.06201172 C11.15677063 155.23755554 11.71149048 154.41309937 12.28302002 153.56365967 C15.23540058 149.15539688 18.14594983 144.719732 21.05859375 140.28515625 C22.28187317 138.42511188 23.50518071 136.565086 24.72851562 134.70507812 C26.58256778 131.88503279 28.43609162 129.06464517 30.28833008 126.2434082 C38.72245015 113.39985923 47.27120617 100.64535267 56 88 C52.54772515 81.52948416 48.72858468 75.4169813 44.6171875 69.34765625 C43.36891355 67.49011732 42.12121139 65.63219405 40.87402344 63.77392578 C40.23444702 62.8223761 39.59487061 61.87082642 38.93591309 60.89044189 C35.78911898 56.19207729 32.6791591 51.46962016 29.5703125 46.74609375 C28.95718201 45.81519928 28.34405151 44.88430481 27.71234131 43.92520142 C25.84938483 41.09630258 23.9871247 38.26694641 22.125 35.4375 C20.23716191 32.56960619 18.34914169 29.70183293 16.46063232 26.8343811 C15.25954894 25.01037633 14.05905086 23.18598599 12.85919189 21.36117554 C10.37188648 17.58162646 7.87918181 13.80716783 5.33886719 10.06298828 C4.60571289 8.98130371 3.87255859 7.89961914 3.1171875 6.78515625 C2.50214355 5.88804932 1.88709961 4.99094238 1.25341797 4.06665039 C0 2 0 2 0 0 Z " fill="#3C1C72" transform="translate(548,921)"/>
<path d="M0 0 C57.75 0 115.5 0 175 0 C175 13.53 175 27.06 175 41 C154.21 41 133.42 41 112 41 C112 104.03 112 167.06 112 232 C95.83 232 79.66 232 63 232 C63 168.97 63 105.94 63 41 C42.21 41 21.42 41 0 41 C0 27.47 0 13.94 0 0 Z " fill="#3B1B72" transform="translate(1391,867)"/>
<path d="M0 0 C0.80542236 0.00563965 1.61084473 0.0112793 2.44067383 0.01708984 C3.35755981 0.02796631 3.35755981 0.02796631 4.29296875 0.0390625 C4.92203125 1.18761719 5.55109375 2.33617187 6.19921875 3.51953125 C7.0629885 5.08898971 7.92763369 6.65796654 8.79296875 8.2265625 C9.2420459 9.04068604 9.69112305 9.85480957 10.15380859 10.69360352 C13.53483811 16.77862005 17.11689144 22.68951994 20.89453125 28.53515625 C22.29296875 31.0390625 22.29296875 31.0390625 22.29296875 34.0390625 C23.28296875 34.3690625 24.27296875 34.6990625 25.29296875 35.0390625 C28.30830121 40.91102571 28.44158988 49.0753237 26.6171875 55.37109375 C25.79296875 57.2890625 25.79296875 57.2890625 24.29296875 60.0390625 C23.63296875 60.0390625 22.97296875 60.0390625 22.29296875 60.0390625 C22.02484375 60.9465625 21.75671875 61.8540625 21.48046875 62.7890625 C20.39165243 65.76898084 19.42905774 67.72496609 17.29296875 70.0390625 C16.63296875 70.0390625 15.97296875 70.0390625 15.29296875 70.0390625 C14.54852809 84.77898748 16.01269176 95.99978424 25.29296875 108.0390625 C29.09737164 115.10438215 27.20190929 122.67600614 25.29296875 130.0390625 C24.63296875 130.0390625 23.97296875 130.0390625 23.29296875 130.0390625 C23.08027344 130.84988281 22.86757812 131.66070313 22.6484375 132.49609375 C20.90439494 137.05472949 18.36727052 140.72557723 15.60546875 144.7265625 C14.52255464 146.32101532 13.44052131 147.91606671 12.359375 149.51171875 C11.8348877 150.28273926 11.31040039 151.05375977 10.77001953 151.84814453 C7.8474518 156.18320616 5.06552073 160.60688433 2.29296875 165.0390625 C-13.18963117 163.59882065 -26.07330631 156.12332994 -38.87109375 147.8359375 C-48.94941701 141.45022304 -59.56499121 135.89738462 -70.06762695 130.2512207 C-74.77527254 127.70585414 -79.29569065 125.08007176 -83.70703125 122.0390625 C-85.88695218 120.652078 -88.07459102 119.27715407 -90.26953125 117.9140625 C-91.36394531 117.23085938 -92.45835937 116.54765625 -93.5859375 115.84375 C-96.27337504 114.2898124 -98.83381395 113.1750957 -101.70703125 112.0390625 C-103.19121857 111.12127882 -104.65026274 110.1616485 -106.08203125 109.1640625 C-108.76137939 107.33059121 -111.41858704 105.59175065 -114.26953125 104.0390625 C-122.3686177 99.32686675 -129.3316548 93.66468992 -134.20703125 85.5390625 C-135.13067608 80.92083836 -134.87455628 77.22872264 -132.671875 73.09765625 C-125.09760759 63.09962328 -111.19594209 57.76863943 -100.31811523 52.0847168 C-94.17563055 48.8376135 -88.31947184 45.16279233 -82.4609375 41.43359375 C-81.84621582 41.04252441 -81.23149414 40.65145508 -80.59814453 40.24853516 C-79.29581454 39.41562233 -77.99752414 38.57637053 -76.70263672 37.73193359 C-72.49667334 35.02672752 -68.34817835 32.94617083 -63.70703125 31.0390625 C-60.97782757 29.72598065 -58.2805895 28.35134785 -55.58203125 26.9765625 C-51.34608474 24.81900096 -47.16450597 22.71278355 -42.70703125 21.0390625 C-42.70703125 20.3790625 -42.70703125 19.7190625 -42.70703125 19.0390625 C-41.71703125 19.0390625 -40.72703125 19.0390625 -39.70703125 19.0390625 C-39.70703125 18.3790625 -39.70703125 17.7190625 -39.70703125 17.0390625 C-39.06765625 16.9153125 -38.42828125 16.7915625 -37.76953125 16.6640625 C-37.08890625 16.4578125 -36.40828125 16.2515625 -35.70703125 16.0390625 C-35.37703125 15.3790625 -35.04703125 14.7190625 -34.70703125 14.0390625 C-31.16010626 11.82972086 -27.41288759 9.96701721 -23.70703125 8.0390625 C-22.66675781 7.4925 -21.62648438 6.9459375 -20.5546875 6.3828125 C-13.74956733 2.8815653 -7.78254952 -0.07081483 0 0 Z " fill="#3A0C4D" transform="translate(1021.70703125,386.9609375)"/>
<path d="M0 0 C5.87450467 2.02692413 11.03642892 4.8086761 16.3046875 8.07910156 C19.69199673 10.14275159 23.21744029 11.86382557 26.77734375 13.61035156 C33.85054159 17.0928322 40.60840168 21.01368447 47.359375 25.08691406 C49.12052173 26.14076602 50.88287291 27.19258436 52.64526367 28.24435425 C53.81535031 28.9428008 54.98511335 29.64178977 56.15454102 30.34133911 C61.432637 33.49833549 66.73087333 36.61923668 72.046875 39.71191406 C72.80637451 40.15760742 73.56587402 40.60330078 74.34838867 41.0625 C77.89583652 43.12170456 81.34291484 44.84563484 85.171875 46.33691406 C86.44763748 47.13024535 87.69734461 47.96658668 88.921875 48.83691406 C93.34754663 51.86383663 97.91765243 54.57593707 102.546875 57.27441406 C104.02214348 58.14549415 105.49740399 59.01658774 106.97265625 59.88769531 C109.52984245 61.39257013 112.10150072 62.85012638 114.71484375 64.25488281 C121.72962165 68.22054639 121.72962165 68.22054639 122.9765625 71.36816406 C123.20779849 75.0135314 122.24198851 77.23287466 120.234375 80.21191406 C119.55375 80.91316406 118.873125 81.61441406 118.171875 82.33691406 C117.841875 82.99691406 117.511875 83.65691406 117.171875 84.33691406 C116.511875 84.33691406 115.851875 84.33691406 115.171875 84.33691406 C114.965625 85.16191406 114.759375 85.98691406 114.546875 86.83691406 C112.82166713 91.22835228 110.39718439 94.88372956 107.171875 98.33691406 C106.511875 98.33691406 105.851875 98.33691406 105.171875 98.33691406 C105.0171875 99.32691406 105.0171875 99.32691406 104.859375 100.33691406 C103.23608229 107.42037317 100.75324707 114.42320707 95.171875 119.33691406 C91.56162079 120.49699677 88.06869122 120.53533842 84.296875 120.58691406 C82.22997137 120.6963854 80.16352841 120.81491998 78.09765625 120.94238281 C77.08783691 121.00087402 76.07801758 121.05936523 75.03759766 121.11962891 C63.13679616 122.02197286 52.59230333 125.49480544 44.171875 134.33691406 C39.9862053 140.51972238 37.60624984 147.23927443 35.91015625 154.47363281 C35.66652344 155.08851563 35.42289063 155.70339844 35.171875 156.33691406 C31.21200763 157.65686985 27.319272 157.6863597 23.18359375 157.87207031 C22.28880814 157.91504745 21.39402252 157.9580246 20.47212219 158.00230408 C18.5715998 158.09255353 16.6709754 158.18067583 14.77026367 158.2668457 C11.90839316 158.39718167 9.0469899 158.53543342 6.18554688 158.67480469 C0.84875431 158.92920373 -4.48874172 159.14505844 -9.828125 159.33691406 C-10.94861237 159.38051056 -10.94861237 159.38051056 -12.09173584 159.42498779 C-14.05929942 159.49542672 -16.02773489 159.5402119 -17.99609375 159.58300781 C-19.06496826 159.60935303 -20.13384277 159.63569824 -21.23510742 159.6628418 C-23.828125 159.33691406 -23.828125 159.33691406 -25.44801331 158.30918884 C-27.57957545 155.26303955 -27.40160435 152.05345594 -27.50292969 148.45458984 C-27.53587505 147.62532549 -27.56882042 146.79606113 -27.60276413 145.94166756 C-28.04231013 133.45267728 -28.01344522 120.94909011 -28.03125 108.45410156 C-28.03399492 107.09004824 -28.036852 105.72599515 -28.03981781 104.36194229 C-28.05339577 97.96597005 -28.0631176 91.57001008 -28.0670197 85.17402446 C-28.07152173 77.84187904 -28.08920885 70.50991803 -28.1180203 63.17782867 C-28.1396774 57.46524652 -28.14972559 51.75271627 -28.15106082 46.04009354 C-28.15210298 42.64573414 -28.15788811 39.25155045 -28.17588043 35.85723495 C-28.19296552 32.08192599 -28.19105623 28.30707038 -28.18457031 24.53173828 C-28.1937851 23.4251033 -28.20299988 22.31846832 -28.2124939 21.17829895 C-28.1674045 12.7850264 -26.82418691 5.28795672 -21.828125 -1.66308594 C-15.10181041 -5.02624323 -6.72932048 -2.1471845 0 0 Z " fill="#65449A" transform="translate(879.828125,518.6630859375)"/>
<path d="M0 0 C1.10778809 0.03714111 2.21557617 0.07428223 3.35693359 0.11254883 C8.40063173 0.32085622 13.44304842 0.55339384 18.48535156 0.79296875 C22.43739966 0.94798902 26.38122736 1.00343153 30.3359375 1.04296875 C32.83859791 1.11392872 35.34120553 1.18678137 37.84375 1.26171875 C39.01873047 1.25245361 40.19371094 1.24318848 41.40429688 1.23364258 C44.81803015 1.37821189 47.32530369 1.59778753 50.46875 2.94921875 C53.3712157 6.65275537 54.96803566 10.51606574 56.46875 14.94921875 C56.73969482 15.73901123 57.01063965 16.52880371 57.28979492 17.3425293 C57.4932251 17.95523682 57.69665527 18.56794434 57.90625 19.19921875 C59.60407851 23.97311302 62.69524404 27.62152784 66.46875 30.94921875 C69.69155381 32.50353897 69.69155381 32.50353897 72.46875 32.94921875 C72.46875 33.60921875 72.46875 34.26921875 72.46875 34.94921875 C73.3659375 34.96903809 74.263125 34.98885742 75.1875 35.00927734 C78.54989397 35.08786636 81.9118829 35.17457346 85.27392578 35.26660156 C86.72273848 35.30463491 88.17163739 35.33953012 89.62060547 35.37109375 C108.93583302 35.79706707 108.93583302 35.79706707 113.859375 39.98046875 C117.60120887 44.94861792 120.44829818 49.56053975 122.5390625 55.42578125 C124.41774777 60.52506985 126.74853467 65.71961927 130.078125 70.03515625 C131.92119869 72.57197116 132.11941737 74.87509163 132.46875 77.94921875 C133.12875 77.94921875 133.78875 77.94921875 134.46875 77.94921875 C136.0235169 81.05875254 135.75519437 83.51188636 135.46875 86.94921875 C132.96954714 91.39930052 130.59540364 93.93475465 126.21875 96.51171875 C125.67863281 96.83269531 125.13851562 97.15367187 124.58203125 97.484375 C117.59594237 101.5708614 110.4181428 105.33338607 103.28515625 109.15478516 C96.79376833 112.64380436 90.50950688 116.30096605 84.28515625 120.24609375 C80.37912008 122.60813504 76.31398466 124.57701921 72.20703125 126.5625 C69.64635684 127.8592752 67.25618396 129.2724369 64.84375 130.82421875 C61.46875 132.94921875 61.46875 132.94921875 59.46875 132.94921875 C59.46875 133.60921875 59.46875 134.26921875 59.46875 134.94921875 C58.17961513 135.62076808 56.88734796 136.28630734 55.59375 136.94921875 C54.87445312 137.32046875 54.15515625 137.69171875 53.4140625 138.07421875 C51.46875 138.94921875 51.46875 138.94921875 49.46875 138.94921875 C49.46875 139.60921875 49.46875 140.26921875 49.46875 140.94921875 C46.78515832 143.41812309 43.88196091 144.63245065 40.5390625 146 C35.92933936 148.11351457 30.59586557 150.66929315 27.109375 154.40625 C21.60774587 159.5804012 12.02609593 163.38443782 4.53125 163.63671875 C-0.25238322 163.27313411 -4.86863528 162.17992136 -8.53125 158.94921875 C-11.05651077 154.64840055 -11.90623056 151.51334375 -11.9054718 146.54656982 C-11.91248611 145.27908905 -11.91950043 144.01160828 -11.92672729 142.70571899 C-11.91930087 141.31390221 -11.91156977 139.92208702 -11.90356445 138.53027344 C-11.90599413 137.05481714 -11.90971516 135.57936248 -11.91462708 134.10391235 C-11.9240124 130.10830463 -11.91463237 126.11294286 -11.90129495 122.11735439 C-11.88996434 117.93559681 -11.89408898 113.75385104 -11.89604187 109.57208252 C-11.89692395 102.55452461 -11.8858593 95.53706347 -11.86743164 88.51953125 C-11.84623235 80.39988188 -11.84276163 72.28037392 -11.8489936 64.16070247 C-11.85468095 56.35133032 -11.84905117 48.54200808 -11.83782005 40.73264313 C-11.83316907 37.40731129 -11.83230232 34.08200993 -11.8344059 30.75667572 C-11.83628471 26.8463547 -11.82821656 22.93617837 -11.8123455 19.02589035 C-11.80809138 17.58833032 -11.80725964 16.15075563 -11.81003571 14.71319199 C-11.81324157 12.75676569 -11.80298023 10.80033091 -11.79194641 8.84393311 C-11.78989354 7.74741802 -11.78784067 6.65090294 -11.78572559 5.52116013 C-11.53125 2.94921875 -11.53125 2.94921875 -9.53125 0.94921875 C-6.32154321 -0.18395572 -3.37748481 -0.11930725 0 0 Z " fill="#65449A" transform="translate(864.53125,262.05078125)"/>
<path d="M0 0 C2.31 0.33 4.62 0.66 7 1 C7.495 2.485 7.495 2.485 8 4 C9.6006913 4.47680166 11.20623285 4.94107274 12.828125 5.33984375 C17.75338513 6.83691023 22.8193152 9.27648182 26.86328125 12.47265625 C29.15869244 14.11343463 31.5159447 15.10157964 34.11669922 16.16894531 C37.42301625 17.62794235 40.47037374 19.51351681 43.5625 21.375 C45.04940663 22.26053848 46.53638991 23.14594825 48.0234375 24.03125 C48.81717773 24.505625 49.61091797 24.98 50.42871094 25.46875 C53.20956701 27.12480102 55.99841472 28.76675597 58.7890625 30.40625 C59.7680249 30.98197754 60.7469873 31.55770508 61.75561523 32.15087891 C63.67392665 33.27895911 65.59269139 34.40626887 67.51196289 35.53271484 C74.89845587 39.88797417 74.89845587 39.88797417 78.42578125 42.29296875 C81.04936542 44.15293317 81.04936542 44.15293317 84.5 45.4375 C88.31348694 47.13994952 90.80853667 49.32959191 94 52 C99.05866072 54.98872857 104.48244139 57.02944335 110 59 C110 59.66 110 60.32 110 61 C110.78375 61.20625 111.5675 61.4125 112.375 61.625 C120.88032211 64.85115666 129.50041717 69.81342747 134 78 C135.16106375 83.72384058 135.37789184 88.88723252 132.125 93.875 C131.09375 94.57625 130.0625 95.2775 129 96 C128.35289062 96.49113281 127.70578125 96.98226562 127.0390625 97.48828125 C121.07708076 101.91398442 114.68589857 105.58395038 108.26538086 109.28979492 C103.31543703 112.16489878 98.6599807 115.2945653 94.02734375 118.66015625 C91.48696326 120.33905896 88.95706008 121.29964366 86 122 C86 122.66 86 123.32 86 124 C84.70990357 124.50403768 83.41786211 125.00309926 82.125 125.5 C81.40570312 125.7784375 80.68640625 126.056875 79.9453125 126.34375 C78 127 78 127 76 127 C76 127.66 76 128.32 76 129 C72.535 129.99 72.535 129.99 69 131 C69 131.66 69 132.32 69 133 C65.535 133.99 65.535 133.99 62 135 C62 135.66 62 136.32 62 137 C59.01576229 139.18844099 55.86104711 140.45380854 52.42578125 141.73828125 C46.95109709 143.90985956 42.06217483 146.72108313 37.0625 149.8125 C35.75490723 150.60817383 35.75490723 150.60817383 34.42089844 151.41992188 C29.82729106 154.22436797 25.27319159 157.0836485 20.75 160 C19.16988649 161.00507997 17.58694255 162.00573757 16 163 C15.31292969 163.43183594 14.62585938 163.86367188 13.91796875 164.30859375 C9.65263264 166.73991946 5.45527887 168.12785841 0.50390625 167.86328125 C-8.41514136 164.7882274 -13.4608605 150.71288031 -17.45849609 142.79516602 C-19.57597946 138.60506476 -21.71314883 134.83161526 -24.625 131.125 C-27.62321705 126.75296016 -28.01684506 122.6388532 -27.796875 117.40234375 C-26.54700746 112.06589951 -23.43959468 108.30084317 -20.203125 104.0234375 C-13.55159013 94.8952673 -13.29977906 81.90878454 -15 71 C-16.9915624 65.96251864 -19.84435712 62.23567912 -23.578125 58.36328125 C-26.54580659 55.25062671 -27.33767202 53.19901455 -27.4375 49 C-27.24521493 41.94200696 -24.37409063 36.57720813 -20.625 30.75 C-20.1930835 30.06905273 -19.76116699 29.38810547 -19.31616211 28.68652344 C-5.70925198 7.35429069 -5.70925198 7.35429069 0 0 Z " fill="#65449A" transform="translate(645,385)"/>
<path d="M0 0 C3.03016051 2.11021815 4.11384251 3.22210588 5.09520149 6.81757736 C5.39461634 10.71975973 5.396893 14.56757683 5.30433655 18.47470093 C5.30179614 19.97310228 5.3032263 21.47151482 5.30831909 22.96990967 C5.31089757 27.02826294 5.25805733 31.08421366 5.19515347 35.14200926 C5.13882213 39.3859708 5.13359962 43.62998987 5.1229248 47.87426758 C5.09497131 55.90693944 5.02114493 63.93850653 4.9307794 71.97069228 C4.83011932 81.11681294 4.78068304 90.26298688 4.73552048 99.40952373 C4.64149218 118.22044962 4.48322983 137.03034773 4.28260803 155.84042358 C-7.76744367 159.85710749 -22.20129986 157.59504998 -34.63926697 156.96688843 C-37.35817677 156.85518195 -40.05925498 156.8181812 -42.77989197 156.82870483 C-52.53856985 156.78446981 -52.53856985 156.78446981 -55.58067322 154.34823608 C-56.94934506 152.23802377 -57.81876391 150.18770203 -58.71739197 147.84042358 C-64.31353442 136.97099305 -72.95152074 126.25943103 -84.71739197 121.84042358 C-88.8937353 121.21416419 -92.99999088 121.18511891 -97.21739197 121.21542358 C-115.23448788 121.21542358 -115.23448788 121.21542358 -120.98692322 115.64120483 C-121.49610291 114.82007202 -122.00528259 113.99893921 -122.52989197 113.15292358 C-123.08418884 112.27120483 -123.63848572 111.38948608 -124.20957947 110.48104858 C-129.71739197 100.83524224 -129.71739197 100.83524224 -129.71739197 96.84042358 C-130.37739197 96.84042358 -131.03739197 96.84042358 -131.71739197 96.84042358 C-132.10926697 95.68542358 -132.50114197 94.53042358 -132.90489197 93.34042358 C-134.37647798 89.36431137 -136.3623557 86.00923835 -138.72911072 82.50448608 C-139.71739197 80.84042358 -139.71739197 80.84042358 -139.71739197 78.84042358 C-140.37739197 78.84042358 -141.03739197 78.84042358 -141.71739197 78.84042358 C-142.61556382 75.41104015 -142.86749889 73.31075861 -141.77989197 69.90292358 C-139.05030717 65.84990374 -135.76371471 62.59779674 -131.71739197 59.84042358 C-130.72739197 59.84042358 -129.73739197 59.84042358 -128.71739197 59.84042358 C-128.71739197 59.18042358 -128.71739197 58.52042358 -128.71739197 57.84042358 C-124.51022653 54.71897826 -119.66366796 53.35986784 -114.71739197 51.84042358 C-114.71739197 51.18042358 -114.71739197 50.52042358 -114.71739197 49.84042358 C-111.74739197 49.34542358 -111.74739197 49.34542358 -108.71739197 48.84042358 C-108.71739197 48.18042358 -108.71739197 47.52042358 -108.71739197 46.84042358 C-107.26113747 46.16922809 -105.8023133 45.50360551 -104.34239197 44.84042358 C-103.53028259 44.46917358 -102.71817322 44.09792358 -101.88145447 43.71542358 C-99.71739197 42.84042358 -99.71739197 42.84042358 -97.71739197 42.84042358 C-97.71739197 42.18042358 -97.71739197 41.52042358 -97.71739197 40.84042358 C-96.62426697 40.28097046 -95.53114197 39.72151733 -94.40489197 39.14511108 C-84.75884533 34.16179644 -75.28157583 28.93994671 -65.90489197 23.46542358 C-64.88588806 22.87100464 -63.86688416 22.27658569 -62.81700134 21.66415405 C-55.40198438 17.30826384 -48.37101662 12.62513065 -41.37754822 7.62167358 C-29.54767993 -0.29964791 -13.60504254 -7.22626784 0 0 Z " fill="#3A0B4D" transform="translate(809.7173919677734,519.1595764160156)"/>
<path d="M0 0 C2.6349074 0.02389995 5.26881795 0.0204974 7.90380859 0.01391602 C9.59782499 0.01948528 11.2918372 0.0265904 12.98583984 0.03540039 C13.76403076 0.03448898 14.54222168 0.03357758 15.34399414 0.03263855 C20.69325539 0.10199575 25.63942484 0.36476663 29.61083984 4.33618164 C29.86810875 6.85568428 29.86810875 6.85568428 29.87826538 10.10354614 C29.89106033 11.94564919 29.89106033 11.94564919 29.90411377 13.82496643 C29.90341467 15.19345106 29.90249156 16.56193558 29.90136719 17.93041992 C29.90734911 19.3659958 29.91415388 20.80156845 29.92172241 22.23713684 C29.93943115 26.14447285 29.94408003 30.05172132 29.94535398 33.95909357 C29.94725144 37.22168527 29.95460782 40.48425652 29.96169817 43.74684036 C29.9780008 51.44883181 29.9828657 59.15077649 29.98144531 66.8527832 C29.98024566 74.79053191 30.00130766 82.72800793 30.03293264 90.66568768 C30.0591226 97.48279475 30.06981136 104.29981297 30.06853449 111.11696994 C30.06802534 115.18730099 30.07368137 119.2573902 30.09489059 123.32767105 C30.11431713 127.16089702 30.11436769 130.99365175 30.09985733 134.82689476 C30.09777306 136.22969314 30.10244738 137.63252131 30.11457825 139.03526878 C30.17815687 146.90026467 29.95004948 152.65152163 25.61083984 159.33618164 C22.79802238 162.1489991 20.07139357 161.76363763 16.29833984 161.77368164 C2.69626598 161.7234951 -13.72711861 154.783525 -23.61962891 145.16821289 C-24.20357422 144.56364258 -24.78751953 143.95907227 -25.38916016 143.33618164 C-27.25727174 142.26408819 -27.25727174 142.26408819 -29.13916016 141.58618164 C-30.21166016 141.17368164 -31.28416016 140.76118164 -32.38916016 140.33618164 C-32.38916016 139.67618164 -32.38916016 139.01618164 -32.38916016 138.33618164 C-34.69916016 137.67618164 -37.00916016 137.01618164 -39.38916016 136.33618164 C-39.38916016 135.67618164 -39.38916016 135.01618164 -39.38916016 134.33618164 C-40.10458984 134.23176758 -40.82001953 134.12735352 -41.55712891 134.01977539 C-44.70079693 133.26095897 -46.94131789 132.07124459 -49.70166016 130.39868164 C-50.58466797 129.8740332 -51.46767578 129.34938477 -52.37744141 128.80883789 C-53.04130859 128.32286133 -53.70517578 127.83688477 -54.38916016 127.33618164 C-54.38916016 126.67618164 -54.38916016 126.01618164 -54.38916016 125.33618164 C-56.03916016 125.00618164 -57.68916016 124.67618164 -59.38916016 124.33618164 C-59.71916016 123.34618164 -60.04916016 122.35618164 -60.38916016 121.33618164 C-61.10330078 121.23950195 -61.81744141 121.14282227 -62.55322266 121.04321289 C-65.84595836 120.22229669 -67.93386004 118.89633227 -70.76416016 117.02368164 C-76.9508543 113.03956561 -83.40216268 109.68199469 -89.95166016 106.33618164 C-112.07208823 94.97829545 -112.07208823 94.97829545 -116.38916016 89.33618164 C-116.98222416 81.01634085 -111.32002891 72.6229406 -107.54199219 65.51977539 C-106.36103239 63.28290449 -105.21432954 61.03087709 -104.07275391 58.77368164 C-103.30399249 57.27328695 -102.53448075 55.77327643 -101.76416016 54.27368164 C-101.41667725 53.58395264 -101.06919434 52.89422363 -100.71118164 52.18359375 C-94.81907759 40.90285531 -94.81907759 40.90285531 -89.55102539 38.49658203 C-82.22046414 36.62297554 -74.35941371 36.64732122 -66.82666016 36.21118164 C-65.42232279 36.12459624 -64.0180253 36.03736162 -62.61376953 35.94946289 C-59.20590253 35.73866699 -55.7977768 35.53442003 -52.38916016 35.33618164 C-52.38916016 34.67618164 -52.38916016 34.01618164 -52.38916016 33.33618164 C-51.56416016 32.84118164 -50.73916016 32.34618164 -49.88916016 31.83618164 C-41.17891031 26.28391338 -35.73913996 16.31466362 -33.51416016 6.46118164 C-30.38936792 1.86589894 -26.9788041 1.94717657 -21.68554688 0.91625977 C-14.50351367 -0.18128913 -7.24762097 -0.07041171 0 0 Z " fill="#3A0B4D" transform="translate(784.38916015625,261.663818359375)"/>
<path d="M0 0 C16.17 0 32.34 0 49 0 C49 76.56 49 153.12 49 232 C32.83 232 16.66 232 0 232 C0 155.44 0 78.88 0 0 Z " fill="#3B1B72" transform="translate(1306,867)"/>
<path d="M0 0 C-0.52913979 15.3859224 -1.52818153 30.67552037 -3 46 C-3.84071045 45.97381592 -4.6814209 45.94763184 -5.54760742 45.9206543 C-8.73276155 45.83432095 -11.91731064 45.77222174 -15.10327148 45.7253418 C-16.46968471 45.70053284 -17.83597019 45.66667288 -19.2019043 45.62280273 C-31.95784417 45.22403301 -43.06764058 47.57133696 -53 55.98828125 C-59.00737555 62.03085626 -63.00306066 68.72038228 -65 77 C-65.17123886 77.67117355 -65.34247772 78.34234711 -65.51890564 79.03385925 C-66.19686241 83.21373616 -66.1782335 87.33531417 -66.20532227 91.5637207 C-66.21522186 92.52030075 -66.22512146 93.4768808 -66.23532104 94.46244812 C-66.26684912 97.61686752 -66.29165911 100.77130197 -66.31640625 103.92578125 C-66.33698328 106.11582322 -66.35797995 108.30586129 -66.37937927 110.49589539 C-66.43452255 116.25469802 -66.48396598 122.01353603 -66.53222656 127.7723999 C-66.59133983 134.68495802 -66.65752517 141.59745159 -66.72252655 148.50995636 C-66.82043862 159.00659809 -66.90936142 169.50328159 -67 180 C-82.84 180 -98.68 180 -115 180 C-115 121.59 -115 63.18 -115 3 C-102.79 3 -90.58 3 -78 3 C-72.42857143 23.28571429 -72.42857143 23.28571429 -72 32 C-70.68 32 -69.36 32 -68 32 C-67.73316406 31.26394531 -67.46632813 30.52789063 -67.19140625 29.76953125 C-61.43752277 16.39411031 -47.83446958 7.46303238 -35.08203125 1.67578125 C-24.74852927 -2.13411275 -10.72607863 -3.03038792 0 0 Z " fill="#3B1B72" transform="translate(1073,919)"/>
<path d="M0 0 C9.04916966 6.55172857 13.04849495 17.03727451 14.7668457 27.71020508 C17.37614598 48.17719256 17.69628332 73.12892831 5.25 90.5 C-0.11827916 96.63878511 -6.83745844 99.21505735 -14.75 100.5 C-26.21166806 101.2437891 -34.76264133 100.66817449 -44 93.3125 C-53.39332364 84.49694031 -57.33096815 70.5074666 -57.85791016 57.92285156 C-58.70931697 17.31836082 -58.70931697 17.31836082 -46.10546875 3.7265625 C-33.5866891 -8.35877672 -14.65821996 -8.56713531 0 0 Z " fill="#FDFDFE" transform="translate(852.75,962.5)"/>
<path d="M0 0 C0 0.66 0 1.32 0 2 C0.73605469 2.08507812 1.47210937 2.17015625 2.23046875 2.2578125 C5.5605457 3.15021676 6.92526054 4.42032439 9.3125 6.875 C10.00988281 7.57367188 10.70726562 8.27234375 11.42578125 8.9921875 C13 11 13 11 13 14 C13.99 14.33 14.98 14.66 16 15 C18.23487899 26.70131764 18.55343703 38.72892357 11.71484375 48.9140625 C7.92887336 53.70189135 3.08549121 57.65374678 -2 61 C-2.66 61 -3.32 61 -4 61 C-4 61.66 -4 62.32 -4 63 C-7.53005515 64.09016409 -10.81878963 64.13344314 -14.5 64.125 C-15.6240625 64.12757813 -16.748125 64.13015625 -17.90625 64.1328125 C-20.4720699 64.02266367 -22.56266427 63.75270662 -25 63 C-25 62.34 -25 61.68 -25 61 C-25.8765625 60.92007813 -26.753125 60.84015625 -27.65625 60.7578125 C-35.60131492 58.95717863 -43.55305485 50.76639497 -48 44 C-51.94490986 35.59562682 -50.01321258 23.82581647 -47.0546875 15.24609375 C-43.58113338 7.84870997 -38.2715435 3.96608124 -30.80859375 0.96875 C-21.02848669 -2.4046388 -9.98126971 -3.3270899 0 0 Z " fill="#66469B" transform="translate(971,229)"/>
<path d="M0 0 C9.02515108 5.33797629 15.859794 13.34618464 19.17431641 23.22265625 C20.92088466 30.17116562 20.22538678 36.40346563 17.89697266 43.09765625 C17.23697266 43.09765625 16.57697266 43.09765625 15.89697266 43.09765625 C15.23697266 45.73765625 14.57697266 48.37765625 13.89697266 51.09765625 C13.23697266 51.09765625 12.57697266 51.09765625 11.89697266 51.09765625 C11.65849609 51.68417969 11.42001953 52.27070313 11.17431641 52.875 C7.85606824 58.64895475 0.74827528 62.13644632 -5.41552734 64.09765625 C-11.69618832 65.58233972 -17.76189849 64.93440298 -24.10302734 64.09765625 C-24.10302734 63.43765625 -24.10302734 62.77765625 -24.10302734 62.09765625 C-24.90740234 62.07703125 -25.71177734 62.05640625 -26.54052734 62.03515625 C-33.92014169 60.09315247 -39.75497263 54.29848989 -44.01708984 48.10546875 C-45.80237335 44.80462084 -46.07409431 41.76057798 -46.10302734 38.09765625 C-46.14041016 36.90011719 -46.17779297 35.70257813 -46.21630859 34.46875 C-46.38789092 25.23039653 -45.9385066 18.57903991 -40.10302734 11.09765625 C-29.98656455 0.61553818 -14.49926785 -6.22118574 0 0 Z " fill="#3C0F4F" transform="translate(1091.10302734375,437.90234375)"/>
<path d="M0 0 C5.36246918 3.9997538 9.21627284 7.77381852 11.375 14.25 C11.46630522 15.62267923 11.50565525 16.99928918 11.5078125 18.375 C11.50910156 19.16390625 11.51039063 19.9528125 11.51171875 20.765625 C11.50785156 21.58546875 11.50398437 22.4053125 11.5 23.25 C11.50386719 24.06984375 11.50773438 24.8896875 11.51171875 25.734375 C11.51042969 26.52328125 11.50914062 27.3121875 11.5078125 28.125 C11.50668457 28.84429687 11.50555664 29.56359375 11.50439453 30.3046875 C11.375 32.25 11.375 32.25 10.375 35.25 C9.715 35.25 9.055 35.25 8.375 35.25 C8.33375 36.075 8.2925 36.9 8.25 37.75 C6.71205904 43.90176385 2.15853276 49.14982906 -2.625 53.25 C-3.285 53.25 -3.945 53.25 -4.625 53.25 C-4.955 54.24 -5.285 55.23 -5.625 56.25 C-14.29566672 59.40752603 -23.58904121 60.02515882 -32.625 58.25 C-33.615 57.59 -34.605 56.93 -35.625 56.25 C-35.625 55.59 -35.625 54.93 -35.625 54.25 C-36.35589844 54.00507813 -37.08679688 53.76015625 -37.83984375 53.5078125 C-45.46215012 50.06548059 -50.57650267 42.80497164 -53.625 35.25 C-53.625 34.59 -53.625 33.93 -53.625 33.25 C-54.285 33.25 -54.945 33.25 -55.625 33.25 C-56.81939526 22.89857441 -53.77960517 15.88659357 -48.625 7.25 C-48.15835938 6.42886719 -47.69171875 5.60773438 -47.2109375 4.76171875 C-43.02799643 -1.73284765 -36.54382811 -4.49836951 -29.21484375 -6.36328125 C-17.63650419 -8.09217358 -9.58319896 -6.56697299 0 0 Z " fill="#67479A" transform="translate(611.625,443.75)"/>
<path d="M0 0 C3.22813193 3.63164842 5.35654212 7.47573638 7.5 11.8125 C8.03238281 12.740625 8.56476562 13.66875 9.11328125 14.625 C12.62408215 22.69489727 11.26229528 32.81737893 8.4375 40.9375 C6.0268653 46.3765365 3.60455289 49.76940116 -1.5 52.8125 C-2.2115625 53.29460938 -2.923125 53.77671875 -3.65625 54.2734375 C-12.52331618 59.35235832 -23.59824589 59.36927692 -33.5 57.8125 C-37.99193501 56.20218368 -41.06174756 54.08845731 -44.5 50.8125 C-45.66789063 49.71228516 -45.66789063 49.71228516 -46.859375 48.58984375 C-53.77098693 41.44539382 -54.94830939 34.70543504 -54.85473633 24.87011719 C-54.5337305 13.83157684 -49.94262729 6.95428769 -42.28125 -0.66796875 C-31.5845867 -10.35806401 -11.27560303 -8.26303733 0 0 Z " fill="#66459B" transform="translate(977.5,654.1875)"/>
<path d="M0 0 C0 1.98 0 3.96 0 6 C1.0725 6.20625 2.145 6.4125 3.25 6.625 C7.83479564 8.30609174 8.8112592 9.70358287 11 14 C12.66960645 18.96094533 13.27159934 23.27296081 13.25 28.5 C13.25773438 30.37171875 13.25773438 30.37171875 13.265625 32.28125 C12.98592555 36.19704225 12.20634176 39.2852333 11 43 C10.34 43 9.68 43 9 43 C8.7215625 44.0209375 8.7215625 44.0209375 8.4375 45.0625 C4.91459775 52.26147416 -1.75641743 56.90292053 -9 60 C-19.16978875 62.44828248 -28.72986141 60.59582124 -38 56 C-44.09291012 51.86855904 -49.07822763 47.31685556 -51 40 C-51.40991438 36.3645181 -51.41963543 32.78014599 -51.375 29.125 C-51.38660156 28.18269531 -51.39820313 27.24039063 -51.41015625 26.26953125 C-51.37904324 18.77129523 -50.23646403 12.52821481 -46.1875 6.140625 C-43.64047735 3.6481814 -41.21501805 2.27713358 -38 0.75 C-36.96875 0.24984375 -35.9375 -0.2503125 -34.875 -0.765625 C-23.85899536 -5.49532264 -11.14274757 -3.15679864 0 0 Z " fill="#3B0D4E" transform="translate(732,652)"/>
<path d="M0 0 C0.495 0.99 0.495 0.99 1 2 C2.175625 2.515625 3.35125 3.03125 4.5625 3.5625 C10.66379817 6.49771912 15.50087724 11.56026526 18.20703125 17.76953125 C20.36330687 26.55396445 20.6101275 38.94874161 16 47 C11.2660933 53.95621289 4.04950705 60.31683098 -4 63 C-5.38441528 63.09134073 -6.77273269 63.13065596 -8.16015625 63.1328125 C-9.3502832 63.13474609 -9.3502832 63.13474609 -10.56445312 63.13671875 C-11.80098633 63.13091797 -11.80098633 63.13091797 -13.0625 63.125 C-14.30483398 63.13080078 -14.30483398 63.13080078 -15.57226562 63.13671875 C-16.76045898 63.13478516 -16.76045898 63.13478516 -17.97265625 63.1328125 C-19.05945679 63.13112061 -19.05945679 63.13112061 -20.16821289 63.12939453 C-22 63 -22 63 -24 62 C-24 61.34 -24 60.68 -24 60 C-24.969375 59.835 -25.93875 59.67 -26.9375 59.5 C-33.11556584 57.75101598 -38.15639852 52.71643821 -41.69140625 47.5078125 C-46.90960291 37.50756695 -45.41190694 26.17764897 -42.33984375 15.76171875 C-40.3370164 9.95023612 -37.84729809 5.81051563 -32.3125 2.8125 C-22.09415613 -1.84419914 -10.93012019 -2.02409633 0 0 Z " fill="#3C0E4E" transform="translate(725,228)"/>
<path d="M0 0 C1.23814453 0.00902344 2.47628906 0.01804687 3.75195312 0.02734375 C6.77234511 0.05066724 9.79231399 0.08339523 12.8125 0.125 C13.98924781 28.61315927 13.98924781 28.61315927 3.75 40.0625 C-3.21178575 46.45573992 -11.82045728 49.671756 -21.1875 50.125 C-21.98929688 50.17527344 -22.79109375 50.22554687 -23.6171875 50.27734375 C-30.77002967 50.54910827 -35.99155087 49.18461166 -42 45.3125 C-46.09539691 41.21710309 -47.55544103 37.09327775 -47.65600586 31.31396484 C-47.64577393 30.63285645 -47.63554199 29.95174805 -47.625 29.25 C-47.61670166 28.54182129 -47.60840332 27.83364258 -47.59985352 27.10400391 C-47.35665079 19.58981861 -45.49045796 15.08369646 -40.125 9.9375 C-28.24503431 0.64123687 -14.52041054 -0.20352058 0 0 Z " fill="#FCFCFD" transform="translate(1191.1875,1016.875)"/>
<path d="M0 0 C8.12806111 5.0353083 12.85221955 12.38709195 15.296875 21.6015625 C15.55037979 25.57313762 15.484375 29.55940503 15.484375 33.5390625 C-6.625625 33.5390625 -28.735625 33.5390625 -51.515625 33.5390625 C-51.515625 22.35279231 -49.06086644 13.08147241 -41.515625 4.5390625 C-29.66330375 -5.21920906 -13.87330919 -6.86000648 0 0 Z " fill="#FDFDFE" transform="translate(467.515625,956.4609375)"/>
<path d="M0 0 C0 0.99 0 1.98 0 3 C-5.00701352 5.99228665 -10.34547855 5.49765559 -16 5 C-18.88127714 4.240151 -21.28134195 3.25476526 -24 2 C-20.265625 0.9453125 -20.265625 0.9453125 -17.875 1.4375 C-11.8857911 2.60930174 -5.5058706 2.93646432 0 0 Z " fill="#654672" transform="translate(810,830)"/>
<path d="M0 0 C-2.24700861 2.24700861 -3.81863599 2.93270437 -6.99291992 3.11352539 C-7.73131104 3.10828857 -8.46970215 3.10305176 -9.23046875 3.09765625 C-10.03291016 3.09443359 -10.83535156 3.09121094 -11.66210938 3.08789062 C-12.49548828 3.07951172 -13.32886719 3.07113281 -14.1875 3.0625 C-15.03248047 3.05798828 -15.87746094 3.05347656 -16.74804688 3.04882812 C-18.83206155 3.03705403 -20.91603977 3.0191189 -23 3 C-23.33 2.34 -23.66 1.68 -24 1 C-21.125109 0.8312433 -18.25011104 0.66492885 -15.375 0.5 C-14.56675781 0.45230469 -13.75851562 0.40460937 -12.92578125 0.35546875 C-8.61012369 0.10986222 -4.32496331 -0.05598658 0 0 Z " fill="#9987B7" transform="translate(882,832)"/>
<path d="M0 0 C0 0.66 0 1.32 0 2 C-4.95484183 3.38489368 -9.74589148 2.89120615 -14.8125 2.5625 C-16.13797852 2.48418945 -16.13797852 2.48418945 -17.49023438 2.40429688 C-19.66050408 2.27525381 -21.83030693 2.13840044 -24 2 C-24 1.67 -24 1.34 -24 1 C-21.31264212 0.83071761 -18.62515116 0.6645047 -15.9375 0.5 C-14.80924805 0.42845703 -14.80924805 0.42845703 -13.65820312 0.35546875 C-9.09508249 0.07891598 -4.57143477 -0.0485677 0 0 Z " fill="#674974" transform="translate(726,298)"/>
<path d="M0 0 C2.1875 0.3125 2.1875 0.3125 4 1 C2.75482035 2.13033298 1.50363348 3.25405036 0.25 4.375 C-0.44609375 5.00148438 -1.1421875 5.62796875 -1.859375 6.2734375 C-3.84508688 7.87505183 -5.67954093 8.96520068 -8 10 C-8 10.66 -8 11.32 -8 12 C-8.66 11.67 -9.32 11.34 -10 11 C-8.89718873 9.72799029 -7.79269231 8.45744147 -6.6875 7.1875 C-6.07261719 6.47980469 -5.45773437 5.77210938 -4.82421875 5.04296875 C-4.22222656 4.36878906 -3.62023437 3.69460938 -3 3 C-2.51144531 2.39800781 -2.02289062 1.79601562 -1.51953125 1.17578125 C-0.76736328 0.59376953 -0.76736328 0.59376953 0 0 Z " fill="#8870AE" transform="translate(939,650)"/>
<path d="M0 0 C0.90105469 0.00902344 1.80210937 0.01804687 2.73046875 0.02734375 C3.41753906 0.03894531 4.10460937 0.05054688 4.8125 0.0625 C4.8125 0.3925 4.8125 0.7225 4.8125 1.0625 C3.54792969 1.10117187 3.54792969 1.10117187 2.2578125 1.140625 C1.16210938 1.19734375 0.06640625 1.2540625 -1.0625 1.3125 C-2.15304687 1.35890625 -3.24359375 1.4053125 -4.3671875 1.453125 C-5.76324219 1.75476563 -5.76324219 1.75476563 -7.1875 2.0625 C-8.50166522 3.98178466 -8.50166522 3.98178466 -9.1875 6.0625 C-10.1775 6.5575 -10.1775 6.5575 -11.1875 7.0625 C-11.8475 6.4025 -12.5075 5.7425 -13.1875 5.0625 C-8.66537523 1.27369276 -5.88960461 -0.07648837 0 0 Z " fill="#61416F" transform="translate(655.1875,596.9375)"/>
<path d="M0 0 C0.66 0.33 1.32 0.66 2 1 C0.90344712 2.31886772 -0.20253423 3.62990057 -1.3125 4.9375 C-1.92738281 5.66839844 -2.54226563 6.39929688 -3.17578125 7.15234375 C-5 9 -5 9 -8 10 C-6.34908222 5.70761377 -3.26245434 3.1206085 0 0 Z " fill="#D5D1DD" transform="translate(564,436)"/>
<path d="M0 0 C-1.5277867 3.43752007 -3.50181056 6.18953688 -6 9 C-6.66 9 -7.32 9 -8 9 C-8.33 9.66 -8.66 10.32 -9 11 C-8.40300869 7.66864109 -7.27987719 5.78724333 -5.0625 3.25 C-4.53785156 2.63640625 -4.01320313 2.0228125 -3.47265625 1.390625 C-2 0 -2 0 0 0 Z " fill="#694D75" transform="translate(897,454)"/>
<path d="M0 0 C0 0.99 0 1.98 0 3 C-3.4766338 5.14336161 -6.21229195 5.21277626 -10.25 5.125 C-11.32765625 5.10695313 -12.4053125 5.08890625 -13.515625 5.0703125 C-14.33546875 5.04710937 -15.1553125 5.02390625 -16 5 C-16 4.67 -16 4.34 -16 4 C-15.34773437 3.96261719 -14.69546875 3.92523437 -14.0234375 3.88671875 C-8.68377043 3.48506238 -4.6795908 2.83238391 0 0 Z " fill="#95839D" transform="translate(810,830)"/>
<path d="M0 0 C0.66 0.33 1.32 0.66 2 1 C-1.3 4.3 -4.6 7.6 -8 11 C-8 7.0234755 -6.61988497 5.9109833 -4 3 C-1.75 1.1875 -1.75 1.1875 0 0 Z " fill="#DAD5E2" transform="translate(930,647)"/>
<path d="M0 0 C-0.99 0.66 -1.98 1.32 -3 2 C-4.40133435 3.03425441 -5.79690305 4.07635312 -7.1875 5.125 C-7.90292969 5.66382813 -8.61835937 6.20265625 -9.35546875 6.7578125 C-10.16951172 7.37269531 -10.16951172 7.37269531 -11 8 C-11 5 -11 5 -8.3125 2.3125 C-5.49953474 0.08083635 -3.65006012 -0.53677355 0 0 Z " fill="#6C4D79" transform="translate(1067,508)"/>
<path d="M0 0 C2.28860052 0.38441337 3.98264432 1.21018098 6 2.3359375 C4.96939453 2.28373047 4.96939453 2.28373047 3.91796875 2.23046875 C3.01691406 2.20339844 2.11585938 2.17632812 1.1875 2.1484375 C-0.15248047 2.09623047 -0.15248047 2.09623047 -1.51953125 2.04296875 C-4.41647515 2.38512748 -5.22555028 3.08987323 -7 5.3359375 C-7.99 5.0059375 -8.98 4.6759375 -10 4.3359375 C-6.97717377 0.30550252 -4.75176907 -0.09280799 0 0 Z " fill="#846DA7" transform="translate(513,308.6640625)"/>
<path d="M0 0 C0.33 1.32 0.66 2.64 1 4 C-1.97 6.475 -1.97 6.475 -5 9 C-5.66 8.67 -6.32 8.34 -7 8 C-4.69 5.36 -2.38 2.72 0 0 Z " fill="#634570" transform="translate(743,285)"/>
</svg>
